<?xml version="1.0" encoding="UTF-8" standalone="no"?>
<!-- Created with Inkscape (http://www.inkscape.org/) -->

<svg
   xmlns:dc="http://purl.org/dc/elements/1.1/"
   xmlns:cc="http://creativecommons.org/ns#"
   xmlns:rdf="http://www.w3.org/1999/02/22-rdf-syntax-ns#"
   xmlns:svg="http://www.w3.org/2000/svg"
   xmlns="http://www.w3.org/2000/svg"
   xmlns:sodipodi="http://sodipodi.sourceforge.net/DTD/sodipodi-0.dtd"
   xmlns:inkscape="http://www.inkscape.org/namespaces/inkscape"
   width="744.09448819"
   height="1052.3622047"
   id="svg7025"
   version="1.1"
   inkscape:version="0.48.3.1 r9886"
   sodipodi:docname="reference_lengths.svg"
   inkscape:export-filename="/home/quentin/p/overscore/doc/design/rle.png"
   inkscape:export-xdpi="500"
   inkscape:export-ydpi="500">
  <sodipodi:namedview
     id="base"
     pagecolor="#ffffff"
     bordercolor="#666666"
     borderopacity="1.0"
     inkscape:pageopacity="0.0"
     inkscape:pageshadow="2"
     inkscape:zoom="1.518566"
     inkscape:cx="387.6298"
     inkscape:cy="686.55802"
     inkscape:document-units="px"
     inkscape:current-layer="layer1"
     showgrid="false"
     inkscape:window-width="1278"
     inkscape:window-height="1007"
     inkscape:window-x="0"
     inkscape:window-y="15"
     inkscape:window-maximized="0" />
  <defs
     id="defs7027">
    <marker
       style="overflow:visible;"
       id="Arrow1Lend"
       refX="0.0"
       refY="0.0"
       orient="auto"
       inkscape:stockid="Arrow1Lend">
      <path
         transform="scale(0.8) rotate(180) translate(12.5,0)"
         style="fill-rule:evenodd;stroke:#000000;stroke-width:1.0pt;"
         d="M 0.0,0.0 L 5.0,-5.0 L -12.5,0.0 L 5.0,5.0 L 0.0,0.0 z "
         id="path8027" />
    </marker>
  </defs>
  <metadata
     id="metadata7030">
    <rdf:RDF>
      <cc:Work
         rdf:about="">
        <dc:format>image/svg+xml</dc:format>
        <dc:type
           rdf:resource="http://purl.org/dc/dcmitype/StillImage" />
        <dc:title></dc:title>
      </cc:Work>
    </rdf:RDF>
  </metadata>
  <g
     id="layer1"
     inkscape:groupmode="layer"
     inkscape:label="Layer 1">
    <g
       inkscape:export-ydpi="500"
       inkscape:export-xdpi="500"
       inkscape:export-filename="/home/quentin/p/overscore/doc/design/reference_lengths.png"
       transform="matrix(0.94713202,0,0,0.94713202,116.5349,282.72114)"
       font-size="32"
       font-weight="400"
       font-style="normal"
       id="g38"
       style="font-size:32px;font-style:normal;font-weight:400;fill:none;stroke:#000000;stroke-width:0.52777803;stroke-linecap:butt;stroke-linejoin:bevel;stroke-opacity:1;font-family:FreeSerifMscore">
      <polyline
         vector-effect="none"
         points="0,0 69.6158,0 "
         id="polyline40"
         style="fill:none" />
      <polyline
         vector-effect="none"
         points="0,6.59722 69.6158,6.59722 "
         id="polyline42"
         style="fill:none" />
      <polyline
         vector-effect="none"
         points="0,13.1944 69.6158,13.1944 "
         id="polyline44"
         style="fill:none" />
      <polyline
         vector-effect="none"
         points="0,19.7917 69.6158,19.7917 "
         id="polyline46"
         style="fill:none" />
      <polyline
         vector-effect="none"
         points="0,26.3889 69.6158,26.3889 "
         id="polyline48"
         style="fill:none" />
    </g>
    <g
       inkscape:export-ydpi="500"
       inkscape:export-xdpi="500"
       inkscape:export-filename="/home/quentin/p/overscore/doc/design/reference_lengths.png"
       transform="matrix(0.94713202,0,0,0.94713202,121.53376,301.46649)"
       font-size="26"
       font-weight="400"
       font-style="normal"
       id="g82"
       style="font-size:26px;font-style:normal;font-weight:400;fill:#000000;fill-opacity:1;fill-rule:evenodd;stroke:none;font-family:MScore">
      <path
         vector-effect="non-scaling-stroke"
         d="M 9.54688,-6.65625 C 9.01562,-8.78125 8.53125,-10.5312 8.125,-11.9062 c 1.46875,-1.7032 2.5938,-3.25 3.375,-4.6719 0.7969,-1.4063 1.2031,-2.9219 1.2031,-4.5781 0,-1.4219 -0.3593,-3.0157 -1.0156,-4.7969 -0.6719,-1.7813 -1.4531,-3.2031 -2.375,-4.2813 -0.04688,-0.0625 -0.14062,-0.0781 -0.25,-0.0781 -0.09375,0 -0.17188,0.0156 -0.25,0.0781 -1.1875,0.8594 -2.14062,1.9532 -2.79688,3.2656 -0.65624,1.3282 -0.98437,2.6876 -0.98437,4.1407 0,1.625 0.04687,2.9531 0.17187,3.9687 0.15626,1.2188 0.53126,2.8438 1.14063,4.8125 -0.17187,0.2031 -0.54687,0.6094 -1.10937,1.2813 -0.5625,0.6562 -0.9375,1.0781 -1.14063,1.3125 -0.20313,0.25 -0.5625,0.6562 -1.01563,1.25 -0.48437,0.60935 -0.8125,1.06248 -1.01562,1.3906 -0.20312,0.32812 -0.46875,0.78125 -0.79688,1.34375 -0.32812,0.5625 -0.54687,1.0625 -0.687495,1.5 -0.140625,0.4375 -0.265625,0.92187 -0.375,1.46875 -0.09375,0.5625 -0.15625,1.125 -0.15625,1.65625 0,2.59375 0.8125,4.82813 2.437505,6.70313 1.625,1.875 3.64062,2.79687 6.01562,2.79687 0.71875,0 1.48438,-0.04687 2.2656,-0.20313 0.0469,0.70313 0.1094,1.46876 0.1094,2.32813 0,0.32813 -0.0312,0.79687 -0.0625,1.40625 -0.0937,1.3125 -0.5,2.4531 -1.26562,3.4219 -0.76563,0.9687 -1.70313,1.4218 -2.875,1.4218 -1.26563,0 -2.25,-0.5312 -2.96876,-1.6562 0.26563,0.1094 0.51563,0.1562 0.79688,0.1562 0.65625,0 1.21875,-0.2187 1.70312,-0.7031 0.45313,-0.4687 0.70313,-1.0469 0.70313,-1.7031 0,-0.7188 -0.25,-1.32812 -0.70313,-1.82812 C 5.73438,8.78125 5.15625,8.5 4.5,8.5 3.73438,8.5 3.04688,8.76562 2.48438,9.26562 1.9375,9.78125 1.65625,10.4062 1.65625,11.125 c 0,1.3906 0.48437,2.5938 1.4375,3.5469 0.96875,0.9687 2.14063,1.4531 3.51563,1.4531 1.4375,0 2.65624,-0.5625 3.65622,-1.7031 0.9844,-1.1407 1.5156,-2.5157 1.625,-4.0938 0.0156,-0.62498 0.0469,-1.10935 0.0469,-1.46872 0,-0.78126 -0.0469,-1.67188 -0.125,-2.65626 0.7344,-0.23437 1.3437,-0.54687 1.8437,-0.92187 1.8126,-1.375 2.7188,-3.14063 2.7188,-5.328125 0,-1.750005 -0.6094,-3.312505 -1.8281,-4.625005 -1.2188,-1.32812 -2.7969,-2 -4.6719,-2 -0.04688,0 -0.09375,0.01563 -0.17188,0.01563 -0.07812,0 -0.125,0 -0.15624,0 m 2.15622,11.8125 c -0.2812,-2.39063 -0.7812,-5.390625 -1.5156,-8.98437 1.2969,0.14062 2.3594,0.67187 3.1719,1.625 0.8125,0.95312 1.2187,2.031245 1.2187,3.187495 0,0.921875 -0.2812,1.765625 -0.8125,2.546875 -0.5312,0.78125 -1.2187,1.3125 -2.0625,1.625 m -9.8281,-5.875 c 0,-0.75 0.10938,-1.54687 0.32812,-2.32813 0.20313,-0.78124 0.46876,-1.5 0.76563,-2.10937 0.28125,-0.60937 0.71875,-1.29687 1.26563,-2.0625 0.5625,-0.75 1.01562,-1.39063 1.40624,-1.84375 0.375,-0.45312 0.9375,-1.0625 1.64063,-1.875 0.35937,1.23438 0.75,2.70312 1.17187,4.4375 -1.26562,0.29688 -2.25,0.90625 -2.96874,1.85938 C 4.75,-3.70312 4.39062,-2.67188 4.39062,-1.5 4.39062,-0.5625 4.625,0.328125 5.125,1.17188 5.64062,2 6.375,2.6875 7.35938,3.20312 7.46875,3.25 7.54688,3.25 7.59375,3.25 7.75,3.25 7.875,3.20312 7.96875,3.07812 8.07812,2.96875 8.15625,2.84375 8.15625,2.6875 c 0,-0.125 -0.07813,-0.25 -0.1875,-0.375 -1.35937,-0.76562 -2.04687,-1.796875 -2.04687,-3.125 0,-0.76562 0.28124,-1.42188 0.82812,-2 C 7.3125,-3.375 8.09375,-3.73438 9.0625,-3.82812 9.82812,-0.25 10.3594,2.8125 10.6719,5.40625 9.98438,5.51562 9.29688,5.5625 8.57812,5.5625 6.82812,5.5625 5.28125,4.95312 3.90625,3.70312 2.54688,2.46875 1.875,0.984375 1.875,-0.71875 m 8.4844,-25.81245 c 0.3281,1.0624 0.5156,2.1562 0.5156,3.2656 0,1.4844 -0.3438,2.875 -0.96875,4.1406 -0.65625,1.2969 -1.57813,2.6719 -2.75,4.0938 C 6.54688,-17.0938 6.25,-18.7344 6.25,-19.9531 c 0,-1.4063 0.35938,-2.7031 1.10938,-3.8907 0.73437,-1.1718 1.73437,-2.0781 3.00002,-2.6874"
         id="path84"
         inkscape:connector-curvature="0"
         style="fill-rule:nonzero" />
    </g>
    <g
       inkscape:export-ydpi="500"
       inkscape:export-xdpi="500"
       inkscape:export-filename="/home/quentin/p/overscore/doc/design/reference_lengths.png"
       transform="matrix(0.94713202,0,0,0.94713202,145.49602,295.21814)"
       font-size="26"
       font-weight="400"
       font-style="normal"
       id="g98"
       style="font-size:26px;font-style:normal;font-weight:400;fill:#000000;fill-opacity:1;fill-rule:evenodd;stroke:none;font-family:MScore">
      <path
         vector-effect="non-scaling-stroke"
         d="m 5.84375,-12.6719 c -0.28125,0 -0.5625,-0.0312 -0.85937,-0.0781 C 4.67188,-12.7969 4.4375,-12.875 4.26562,-12.9219 4.0625,-12.9688 3.96875,-13 3.9375,-13 c -0.25,0 -0.35938,0.1562 -0.35938,0.4062 0,0.9688 -0.125,1.9063 -0.375,2.81255 -0.25,0.92187 -0.53124,1.70313 -0.89062,2.35937 C 1.95312,-6.75 1.59375,-6.14062 1.25,-5.64062 c -0.359375,0.53124 -0.671875,0.9375 -0.921875,1.25 -0.25,0.29687 -0.375,0.48437 -0.375,0.53124 0,0.15626 0.046875,0.29688 0.203125,0.4375 0.125,0.125 0.328125,0.17188 0.609375,0.17188 l 4.343755,0 0,0.20312 c 0,0.6875 -0.1875,1.26563 -0.53126,1.71876 -0.39062,0.48437 -0.84374,0.718745 -1.375,0.718745 -0.20312,0 -0.3125,0.09375 -0.3125,0.296875 C 2.89062,-0.109375 3,0 3.20312,0 c 0.35938,0 0.9375,-0.046875 1.70313,-0.15625 0.75,-0.09375 1.3125,-0.171875 1.70313,-0.171875 0.34374,0 0.90624,0.078125 1.6875,0.171875 C 9.0625,-0.046875 9.65625,0 10.0312,0 c 0.2032,0 0.2969,-0.109375 0.2969,-0.3125 0,-0.203125 -0.0937,-0.296875 -0.2969,-0.296875 -0.56245,0 -1.01558,-0.234375 -1.37495,-0.718745 -0.35937,-0.42188 -0.5,-1.01563 -0.5,-1.71876 l 0,-0.20312 1.84375,0 c 0.2656,0 0.4062,-0.125 0.4062,-0.375 C 10.3906,-3.89062 10.2656,-4.01562 10,-4.01562 l -1.84375,0 0,-6.37498 C 8.125,-10.6094 8,-10.7344 7.79688,-10.7344 c -0.10938,0 -0.17188,0.0469 -0.23438,0.1406 -0.40625,0.79692 -0.70312,1.32818 -0.95312,1.60942 -0.34376,0.40626 -0.60938,0.625 -0.8125,0.70313 -0.20313,0.07813 -0.39063,0.1875 -0.51563,0.3125 -0.125,0.14063 -0.17187,0.32813 -0.17187,0.54687 l 0,3.40626 -4.343755,0 7.390625,-8.57818 c 0.01563,-0.0312 0.04687,-0.0781 0.04687,-0.1562 -0.03124,-0.0469 -0.04687,-0.125 -0.10937,-0.1719 -0.0625,-0.0469 -0.17187,-0.1093 -0.26563,-0.1093 -0.10937,0 -0.34374,0.0781 -0.6875,0.1874 -0.39062,0.125 -0.8125,0.1719 -1.29687,0.1719"
         id="path100"
         inkscape:connector-curvature="0"
         style="fill-rule:nonzero" />
    </g>
    <g
       inkscape:export-ydpi="500"
       inkscape:export-xdpi="500"
       inkscape:export-filename="/home/quentin/p/overscore/doc/design/reference_lengths.png"
       transform="matrix(0.94713202,0,0,0.94713202,145.49602,307.71484)"
       font-size="26"
       font-weight="400"
       font-style="normal"
       id="g104"
       style="font-size:26px;font-style:normal;font-weight:400;fill:#000000;fill-opacity:1;fill-rule:evenodd;stroke:none;font-family:MScore">
      <path
         vector-effect="non-scaling-stroke"
         d="m 5.84375,-12.6719 c -0.28125,0 -0.5625,-0.0312 -0.85937,-0.0781 C 4.67188,-12.7969 4.4375,-12.875 4.26562,-12.9219 4.0625,-12.9688 3.96875,-13 3.9375,-13 c -0.25,0 -0.35938,0.1562 -0.35938,0.4062 0,0.9688 -0.125,1.9063 -0.375,2.81255 -0.25,0.92187 -0.53124,1.70313 -0.89062,2.35937 C 1.95312,-6.75 1.59375,-6.14062 1.25,-5.64062 c -0.359375,0.53124 -0.671875,0.9375 -0.921875,1.25 -0.25,0.29687 -0.375,0.48437 -0.375,0.53124 0,0.15626 0.046875,0.29688 0.203125,0.4375 0.125,0.125 0.328125,0.17188 0.609375,0.17188 l 4.343755,0 0,0.20312 c 0,0.6875 -0.1875,1.26563 -0.53126,1.71876 -0.39062,0.48437 -0.84374,0.718745 -1.375,0.718745 -0.20312,0 -0.3125,0.09375 -0.3125,0.296875 C 2.89062,-0.109375 3,0 3.20312,0 c 0.35938,0 0.9375,-0.046875 1.70313,-0.15625 0.75,-0.09375 1.3125,-0.171875 1.70313,-0.171875 0.34374,0 0.90624,0.078125 1.6875,0.171875 C 9.0625,-0.046875 9.65625,0 10.0312,0 c 0.2032,0 0.2969,-0.109375 0.2969,-0.3125 0,-0.203125 -0.0937,-0.296875 -0.2969,-0.296875 -0.56245,0 -1.01558,-0.234375 -1.37495,-0.718745 -0.35937,-0.42188 -0.5,-1.01563 -0.5,-1.71876 l 0,-0.20312 1.84375,0 c 0.2656,0 0.4062,-0.125 0.4062,-0.375 C 10.3906,-3.89062 10.2656,-4.01562 10,-4.01562 l -1.84375,0 0,-6.37498 C 8.125,-10.6094 8,-10.7344 7.79688,-10.7344 c -0.10938,0 -0.17188,0.0469 -0.23438,0.1406 -0.40625,0.79692 -0.70312,1.32818 -0.95312,1.60942 -0.34376,0.40626 -0.60938,0.625 -0.8125,0.70313 -0.20313,0.07813 -0.39063,0.1875 -0.51563,0.3125 -0.125,0.14063 -0.17187,0.32813 -0.17187,0.54687 l 0,3.40626 -4.343755,0 7.390625,-8.57818 c 0.01563,-0.0312 0.04687,-0.0781 0.04687,-0.1562 -0.03124,-0.0469 -0.04687,-0.125 -0.10937,-0.1719 -0.0625,-0.0469 -0.17187,-0.1093 -0.26563,-0.1093 -0.10937,0 -0.34374,0.0781 -0.6875,0.1874 -0.39062,0.125 -0.8125,0.1719 -1.29687,0.1719"
         id="path106"
         inkscape:connector-curvature="0"
         style="fill-rule:nonzero" />
    </g>
    <g
       inkscape:export-ydpi="500"
       inkscape:export-xdpi="500"
       inkscape:export-filename="/home/quentin/p/overscore/doc/design/reference_lengths.png"
       transform="matrix(0.94713202,0,0,0.94713202,164.5059,288.96949)"
       font-size="26"
       font-weight="400"
       font-style="normal"
       id="g126"
       style="font-size:26px;font-style:normal;font-weight:400;fill:#000000;fill-opacity:1;fill-rule:evenodd;stroke:none;font-family:MScore">
      <path
         vector-effect="non-scaling-stroke"
         d="m 9.5,4.0625 c 0.15625,0 0.25,-0.07812 0.25,-0.25 L 9.75,0.25 C 9.75,0.109375 9.65625,0 9.5,0 L 0.25,0 C 0.078125,0 0,0.109375 0,0.25 l 0,3.5625 c 0,0.17188 0.078125,0.25 0.25,0.25 l 9.25,0"
         id="path128"
         inkscape:connector-curvature="0"
         style="fill-rule:nonzero" />
    </g>
    <g
       inkscape:export-ydpi="500"
       inkscape:export-xdpi="500"
       inkscape:export-filename="/home/quentin/p/overscore/doc/design/reference_lengths.png"
       transform="matrix(1.522734,0,0,0.2629825,116.07103,282.72114)"
       font-size="26"
       font-weight="400"
       font-style="normal"
       id="g2660"
       style="font-size:26px;font-style:normal;font-weight:400;fill:none;stroke:#000000;stroke-width:1.05555999;stroke-linecap:butt;stroke-linejoin:bevel;stroke-opacity:1;font-family:MScore">
      <polyline
         vector-effect="none"
         points="0.527778,0 0.527778,95.6597 "
         id="polyline2662"
         style="fill:none" />
    </g>
    <path
       inkscape:export-ydpi="500"
       inkscape:export-xdpi="500"
       inkscape:export-filename="/home/quentin/p/overscore/doc/design/reference_lengths.png"
       sodipodi:nodetypes="cc"
       inkscape:connector-curvature="0"
       id="path7070"
       d="m 183.74645,273.97902 0,7.91512"
       style="fill:none;stroke:#000000;stroke-width:0.30000001;stroke-linecap:butt;stroke-linejoin:miter;stroke-miterlimit:4;stroke-opacity:1;stroke-dasharray:none;marker-start:none;marker-end:url(#Arrow1Lend)" />
    <path
       inkscape:export-ydpi="500"
       inkscape:export-xdpi="500"
       inkscape:export-filename="/home/quentin/p/overscore/doc/design/reference_lengths.png"
       sodipodi:nodetypes="cc"
       style="fill:none;stroke:#000000;stroke-width:0.30000001;stroke-linecap:butt;stroke-linejoin:miter;stroke-miterlimit:4;stroke-opacity:1;stroke-dasharray:none;marker-start:none;marker-end:url(#Arrow1Lend)"
       d="m 183.74645,291.16312 0,-7.64726"
       id="path8464"
       inkscape:connector-curvature="0" />
    <text
       inkscape:export-ydpi="500"
       inkscape:export-xdpi="500"
       inkscape:export-filename="/home/quentin/p/overscore/doc/design/reference_lengths.png"
       sodipodi:linespacing="125%"
       id="text8468"
       y="284.70779"
       x="185.35715"
       style="font-size:6px;font-style:normal;font-weight:normal;line-height:125%;letter-spacing:0px;word-spacing:0px;fill:#000000;fill-opacity:1;stroke:none;font-family:Sans"
       xml:space="preserve"><tspan
         y="284.70779"
         x="185.35715"
         id="tspan8470"
         sodipodi:role="line">Staffline height</tspan></text>
    <path
       inkscape:export-ydpi="500"
       inkscape:export-xdpi="500"
       inkscape:export-filename="/home/quentin/p/overscore/doc/design/reference_lengths.png"
       style="fill:none;stroke:#000000;stroke-width:0.30000001;stroke-linecap:butt;stroke-linejoin:miter;stroke-miterlimit:4;stroke-opacity:1;stroke-dasharray:none;marker-start:none;marker-end:url(#Arrow1Lend)"
       d="m 183.74645,293.59219 0,7.91512"
       id="path8472"
       inkscape:connector-curvature="0"
       sodipodi:nodetypes="cc" />
    <path
       inkscape:export-ydpi="500"
       inkscape:export-xdpi="500"
       inkscape:export-filename="/home/quentin/p/overscore/doc/design/reference_lengths.png"
       inkscape:connector-curvature="0"
       id="path8474"
       d="m 183.74645,315.28522 0,-7.64726"
       style="fill:none;stroke:#000000;stroke-width:0.30000001;stroke-linecap:butt;stroke-linejoin:miter;stroke-miterlimit:4;stroke-opacity:1;stroke-dasharray:none;marker-start:none;marker-end:url(#Arrow1Lend)"
       sodipodi:nodetypes="cc" />
    <text
       inkscape:export-ydpi="500"
       inkscape:export-xdpi="500"
       inkscape:export-filename="/home/quentin/p/overscore/doc/design/reference_lengths.png"
       xml:space="preserve"
       style="font-size:6px;font-style:normal;font-weight:normal;line-height:125%;letter-spacing:0px;word-spacing:0px;fill:#000000;fill-opacity:1;stroke:none;font-family:Sans"
       x="185.35715"
       y="306.69998"
       id="text8476"
       sodipodi:linespacing="125%"><tspan
         sodipodi:role="line"
         id="tspan8478"
         x="185.35715"
         y="306.69998">Staffspace height</tspan></text>
    <rect
       style="fill:#ffffff;stroke:#000000;stroke-width:1;stroke-miterlimit:4;stroke-opacity:1;stroke-dasharray:none;stroke-dashoffset:0"
       id="rect8501"
       width="6.5851598"
       height="6.5851598"
       x="150.63553"
       y="336.44092"
       inkscape:export-filename="/home/quentin/p/overscore/doc/design/rle.png"
       inkscape:export-xdpi="200"
       inkscape:export-ydpi="200" />
    <rect
       style="fill:#ffffff;stroke:#000000;stroke-width:1;stroke-miterlimit:4;stroke-opacity:1;stroke-dasharray:none;stroke-dashoffset:0"
       id="rect8503"
       width="6.5851598"
       height="6.5851598"
       x="150.63553"
       y="343.07632"
       inkscape:export-filename="/home/quentin/p/overscore/doc/design/rle.png"
       inkscape:export-xdpi="200"
       inkscape:export-ydpi="200" />
    <rect
       y="349.7117"
       x="150.63553"
       height="6.5851598"
       width="6.5851598"
       id="rect8505"
       style="fill:#ffffff;stroke:#000000;stroke-width:1;stroke-miterlimit:4;stroke-opacity:1;stroke-dasharray:none;stroke-dashoffset:0"
       inkscape:export-filename="/home/quentin/p/overscore/doc/design/rle.png"
       inkscape:export-xdpi="200"
       inkscape:export-ydpi="200" />
    <rect
       style="fill:#ffffff;stroke:#000000;stroke-width:1;stroke-miterlimit:4;stroke-opacity:1;stroke-dasharray:none;stroke-dashoffset:0"
       id="rect8507"
       width="6.5851598"
       height="6.5851598"
       x="150.63553"
       y="356.34708"
       inkscape:export-filename="/home/quentin/p/overscore/doc/design/rle.png"
       inkscape:export-xdpi="200"
       inkscape:export-ydpi="200" />
    <rect
       y="362.98245"
       x="150.63553"
       height="6.5851598"
       width="6.5851598"
       id="rect8509"
       style="fill:#4d4d4d;stroke:#000000;stroke-width:1;stroke-miterlimit:4;stroke-opacity:1;stroke-dasharray:none;stroke-dashoffset:0"
       inkscape:export-filename="/home/quentin/p/overscore/doc/design/rle.png"
       inkscape:export-xdpi="200"
       inkscape:export-ydpi="200" />
    <rect
       y="369.61786"
       x="150.63553"
       height="6.5851598"
       width="6.5851598"
       id="rect8511"
       style="fill:#4d4d4d;stroke:#000000;stroke-width:1;stroke-miterlimit:4;stroke-opacity:1;stroke-dasharray:none;stroke-dashoffset:0"
       inkscape:export-filename="/home/quentin/p/overscore/doc/design/rle.png"
       inkscape:export-xdpi="200"
       inkscape:export-ydpi="200" />
    <rect
       style="fill:#ffffff;stroke:#000000;stroke-width:1;stroke-miterlimit:4;stroke-opacity:1;stroke-dasharray:none;stroke-dashoffset:0"
       id="rect8513"
       width="6.5851598"
       height="6.5851598"
       x="150.63553"
       y="376.25323"
       inkscape:export-filename="/home/quentin/p/overscore/doc/design/rle.png"
       inkscape:export-xdpi="200"
       inkscape:export-ydpi="200" />
    <rect
       style="fill:#ffffff;stroke:#000000;stroke-width:1;stroke-miterlimit:4;stroke-opacity:1;stroke-dasharray:none;stroke-dashoffset:0"
       id="rect8515"
       width="6.5851598"
       height="6.5851598"
       x="150.63553"
       y="382.77222"
       inkscape:export-filename="/home/quentin/p/overscore/doc/design/rle.png"
       inkscape:export-xdpi="200"
       inkscape:export-ydpi="200" />
    <rect
       y="389.40759"
       x="150.63553"
       height="6.5851598"
       width="6.5851598"
       id="rect8517"
       style="fill:#ffffff;stroke:#000000;stroke-width:1;stroke-miterlimit:4;stroke-opacity:1;stroke-dasharray:none;stroke-dashoffset:0"
       inkscape:export-filename="/home/quentin/p/overscore/doc/design/rle.png"
       inkscape:export-xdpi="200"
       inkscape:export-ydpi="200" />
    <rect
       y="396.043"
       x="150.63553"
       height="6.5851598"
       width="6.5851598"
       id="rect8519"
       style="fill:#ffffff;stroke:#000000;stroke-width:1;stroke-miterlimit:4;stroke-opacity:1;stroke-dasharray:none;stroke-dashoffset:0"
       inkscape:export-filename="/home/quentin/p/overscore/doc/design/rle.png"
       inkscape:export-xdpi="200"
       inkscape:export-ydpi="200" />
    <rect
       style="fill:#ffffff;stroke:#000000;stroke-width:1;stroke-miterlimit:4;stroke-opacity:1;stroke-dasharray:none;stroke-dashoffset:0"
       id="rect8521"
       width="6.5851598"
       height="6.5851598"
       x="150.63553"
       y="402.67838"
       inkscape:export-filename="/home/quentin/p/overscore/doc/design/rle.png"
       inkscape:export-xdpi="200"
       inkscape:export-ydpi="200" />
    <rect
       y="409.31375"
       x="150.63553"
       height="6.5851598"
       width="6.5851598"
       id="rect8523"
       style="fill:#ffffff;stroke:#000000;stroke-width:1;stroke-miterlimit:4;stroke-opacity:1;stroke-dasharray:none;stroke-dashoffset:0"
       inkscape:export-filename="/home/quentin/p/overscore/doc/design/rle.png"
       inkscape:export-xdpi="200"
       inkscape:export-ydpi="200" />
    <rect
       style="fill:#4d4d4d;stroke:#000000;stroke-width:1;stroke-miterlimit:4;stroke-opacity:1;stroke-dasharray:none;stroke-dashoffset:0"
       id="rect8525"
       width="6.5851598"
       height="6.5851598"
       x="150.63553"
       y="415.94913"
       inkscape:export-filename="/home/quentin/p/overscore/doc/design/rle.png"
       inkscape:export-xdpi="200"
       inkscape:export-ydpi="200" />
    <rect
       style="fill:#4d4d4d;stroke:#000000;stroke-width:1;stroke-miterlimit:4;stroke-opacity:1;stroke-dasharray:none;stroke-dashoffset:0"
       id="rect8527"
       width="6.5851598"
       height="6.5851598"
       x="150.63553"
       y="422.58453"
       inkscape:export-filename="/home/quentin/p/overscore/doc/design/rle.png"
       inkscape:export-xdpi="200"
       inkscape:export-ydpi="200" />
    <rect
       y="429.21991"
       x="150.63553"
       height="6.5851598"
       width="6.5851598"
       id="rect8529"
       style="fill:#ffffff;stroke:#000000;stroke-width:1;stroke-miterlimit:4;stroke-opacity:1;stroke-dasharray:none;stroke-dashoffset:0"
       inkscape:export-filename="/home/quentin/p/overscore/doc/design/rle.png"
       inkscape:export-xdpi="200"
       inkscape:export-ydpi="200" />
    <rect
       style="fill:#ffffff;stroke:#000000;stroke-width:1;stroke-miterlimit:4;stroke-opacity:1;stroke-dasharray:none;stroke-dashoffset:0"
       id="rect8531"
       width="6.5851598"
       height="6.5851598"
       x="150.63553"
       y="435.73889"
       inkscape:export-filename="/home/quentin/p/overscore/doc/design/rle.png"
       inkscape:export-xdpi="200"
       inkscape:export-ydpi="200" />
    <rect
       y="442.37427"
       x="150.63553"
       height="6.5851598"
       width="6.5851598"
       id="rect8533"
       style="fill:#ffffff;stroke:#000000;stroke-width:1;stroke-miterlimit:4;stroke-opacity:1;stroke-dasharray:none;stroke-dashoffset:0"
       inkscape:export-filename="/home/quentin/p/overscore/doc/design/rle.png"
       inkscape:export-xdpi="200"
       inkscape:export-ydpi="200" />
    <rect
       y="449.00967"
       x="150.63553"
       height="6.5851598"
       width="6.5851598"
       id="rect8535"
       style="fill:#ffffff;stroke:#000000;stroke-width:1;stroke-miterlimit:4;stroke-opacity:1;stroke-dasharray:none;stroke-dashoffset:0"
       inkscape:export-filename="/home/quentin/p/overscore/doc/design/rle.png"
       inkscape:export-xdpi="200"
       inkscape:export-ydpi="200" />
    <rect
       style="fill:#ffffff;stroke:#000000;stroke-width:1;stroke-miterlimit:4;stroke-opacity:1;stroke-dasharray:none;stroke-dashoffset:0"
       id="rect8537"
       width="6.5851598"
       height="6.5851598"
       x="150.63553"
       y="455.64505"
       inkscape:export-filename="/home/quentin/p/overscore/doc/design/rle.png"
       inkscape:export-xdpi="200"
       inkscape:export-ydpi="200" />
    <rect
       y="462.28043"
       x="150.63553"
       height="6.5851598"
       width="6.5851598"
       id="rect8539"
       style="fill:#4d4d4d;stroke:#000000;stroke-width:1;stroke-miterlimit:4;stroke-opacity:1;stroke-dasharray:none;stroke-dashoffset:0"
       inkscape:export-filename="/home/quentin/p/overscore/doc/design/rle.png"
       inkscape:export-xdpi="200"
       inkscape:export-ydpi="200" />
    <rect
       style="fill:#ffffff;stroke:#000000;stroke-width:1;stroke-miterlimit:4;stroke-opacity:1;stroke-dasharray:none;stroke-dashoffset:0"
       id="rect8541"
       width="6.5851598"
       height="6.5851598"
       x="150.63553"
       y="468.9158"
       inkscape:export-filename="/home/quentin/p/overscore/doc/design/rle.png"
       inkscape:export-xdpi="200"
       inkscape:export-ydpi="200" />
    <rect
       style="fill:#ffffff;stroke:#000000;stroke-width:1;stroke-miterlimit:4;stroke-opacity:1;stroke-dasharray:none;stroke-dashoffset:0"
       id="rect8543"
       width="6.5851598"
       height="6.5851598"
       x="150.63553"
       y="475.55121"
       inkscape:export-filename="/home/quentin/p/overscore/doc/design/rle.png"
       inkscape:export-xdpi="200"
       inkscape:export-ydpi="200" />
    <rect
       y="482.18658"
       x="150.63553"
       height="6.5851598"
       width="6.5851598"
       id="rect8545"
       style="fill:#ffffff;stroke:#000000;stroke-width:1;stroke-miterlimit:4;stroke-opacity:1;stroke-dasharray:none;stroke-dashoffset:0"
       inkscape:export-filename="/home/quentin/p/overscore/doc/design/rle.png"
       inkscape:export-xdpi="200"
       inkscape:export-ydpi="200" />
    <rect
       y="488.70557"
       x="150.63553"
       height="6.5851598"
       width="6.5851598"
       id="rect8547"
       style="fill:#ffffff;stroke:#000000;stroke-width:1;stroke-miterlimit:4;stroke-opacity:1;stroke-dasharray:none;stroke-dashoffset:0"
       inkscape:export-filename="/home/quentin/p/overscore/doc/design/rle.png"
       inkscape:export-xdpi="200"
       inkscape:export-ydpi="200" />
    <rect
       style="fill:#ffffff;stroke:#000000;stroke-width:1;stroke-miterlimit:4;stroke-opacity:1;stroke-dasharray:none;stroke-dashoffset:0"
       id="rect8549"
       width="6.5851598"
       height="6.5851598"
       x="150.63553"
       y="495.34094"
       inkscape:export-filename="/home/quentin/p/overscore/doc/design/rle.png"
       inkscape:export-xdpi="200"
       inkscape:export-ydpi="200" />
    <rect
       style="fill:#ffffff;stroke:#000000;stroke-width:1;stroke-miterlimit:4;stroke-opacity:1;stroke-dasharray:none;stroke-dashoffset:0"
       id="rect8551"
       width="6.5851598"
       height="6.5851598"
       x="150.63553"
       y="501.97635"
       inkscape:export-filename="/home/quentin/p/overscore/doc/design/rle.png"
       inkscape:export-xdpi="200"
       inkscape:export-ydpi="200" />
    <rect
       y="508.61172"
       x="150.63553"
       height="6.5851598"
       width="6.5851598"
       id="rect8553"
       style="fill:#4d4d4d;stroke:#000000;stroke-width:1;stroke-miterlimit:4;stroke-opacity:1;stroke-dasharray:none;stroke-dashoffset:0"
       inkscape:export-filename="/home/quentin/p/overscore/doc/design/rle.png"
       inkscape:export-xdpi="200"
       inkscape:export-ydpi="200" />
    <rect
       style="fill:#4d4d4d;stroke:#000000;stroke-width:1;stroke-miterlimit:4;stroke-opacity:1;stroke-dasharray:none;stroke-dashoffset:0"
       id="rect8555"
       width="6.5851598"
       height="6.5851598"
       x="150.63553"
       y="515.24713"
       inkscape:export-filename="/home/quentin/p/overscore/doc/design/rle.png"
       inkscape:export-xdpi="200"
       inkscape:export-ydpi="200" />
    <rect
       y="521.88251"
       x="150.63553"
       height="6.5851598"
       width="6.5851598"
       id="rect8557"
       style="fill:#ffffff;stroke:#000000;stroke-width:1;stroke-miterlimit:4;stroke-opacity:1;stroke-dasharray:none;stroke-dashoffset:0"
       inkscape:export-filename="/home/quentin/p/overscore/doc/design/rle.png"
       inkscape:export-xdpi="200"
       inkscape:export-ydpi="200" />
    <rect
       y="528.51788"
       x="150.63553"
       height="6.5851598"
       width="6.5851598"
       id="rect8559"
       style="fill:#ffffff;stroke:#000000;stroke-width:1;stroke-miterlimit:4;stroke-opacity:1;stroke-dasharray:none;stroke-dashoffset:0"
       inkscape:export-filename="/home/quentin/p/overscore/doc/design/rle.png"
       inkscape:export-xdpi="200"
       inkscape:export-ydpi="200" />
    <rect
       style="fill:#ffffff;stroke:#000000;stroke-width:1;stroke-miterlimit:4;stroke-opacity:1;stroke-dasharray:none;stroke-dashoffset:0"
       id="rect8561"
       width="6.5851598"
       height="6.5851598"
       x="150.63553"
       y="535.15326"
       inkscape:export-filename="/home/quentin/p/overscore/doc/design/rle.png"
       inkscape:export-xdpi="200"
       inkscape:export-ydpi="200" />
    <rect
       style="fill:#4d4d4d;stroke:#000000;stroke-width:1;stroke-miterlimit:4;stroke-opacity:1;stroke-dasharray:none;stroke-dashoffset:0"
       id="rect8567"
       width="6.5851598"
       height="6.5851598"
       x="266.17599"
       y="423.02036"
       inkscape:export-filename="/home/quentin/p/overscore/doc/design/rle.png"
       inkscape:export-xdpi="200"
       inkscape:export-ydpi="200" />
    <rect
       y="423.02036"
       x="248.58894"
       height="6.5851598"
       width="6.5851598"
       id="rect8569"
       style="fill:#ffffff;stroke:#000000;stroke-width:1;stroke-miterlimit:4;stroke-opacity:1;stroke-dasharray:none;stroke-dashoffset:0"
       inkscape:export-filename="/home/quentin/p/overscore/doc/design/rle.png"
       inkscape:export-xdpi="200"
       inkscape:export-ydpi="200" />
    <g
       id="g3560"
       transform="translate(-134.10464,119.66977)"
       inkscape:export-filename="/home/quentin/p/overscore/doc/design/rle.png"
       inkscape:export-xdpi="200"
       inkscape:export-ydpi="200">
      <g
         word-spacing="normal"
         letter-spacing="normal"
         font-size-adjust="none"
         font-stretch="normal"
         font-weight="normal"
         font-variant="normal"
         font-style="normal"
         stroke-miterlimit="10.433"
         xml:space="preserve"
         transform="matrix(1.0629921,0,0,-1.0629921,-186.02362,789.27165)"
         id="g3562"
         style="font-style:normal;font-variant:normal;font-weight:normal;font-stretch:normal;letter-spacing:normal;word-spacing:normal;text-anchor:start;fill:none;stroke:#000000;stroke-linecap:butt;stroke-linejoin:miter;stroke-miterlimit:10.43299961;stroke-opacity:1;stroke-dasharray:none;stroke-dashoffset:0"><path
           id="path3564"
           d="m 491.69,422.5 0.4,-0.34 0.4,-0.31 0.42,-0.31 0.41,-0.3 0.42,-0.28 0.42,-0.27 0.42,-0.26 0.42,-0.25 0.41,-0.23 0.4,-0.23 0.39,-0.21 0.39,-0.19 0.37,-0.19 0.35,-0.17 0.18,-0.08 0.16,-0.08 0.17,-0.08 0.15,-0.07 c -1.79,-0.79 -4.23,-2.09 -6.28,-3.83 h -31.64 c -0.84,0 -1.8,0 -1.8,-1 0,-1 0.91,-1 1.75,-1 h 29.44 c -2.39,-2.29 -4.97,-6.67 -4.97,-7.32 0,-0.55 0.64,-0.55 0.94,-0.55 0.41,0 0.75,0 0.95,0.41 1.05,1.89 2.44,4.53 5.68,7.42 3.43,3.03 6.78,4.37 9.37,5.12 0.84,0.3 0.89,0.36 0.98,0.46 0.11,0.04 0.11,0.2 0.11,0.29 0,0.11 0,0.21 -0.04,0.3 l -0.16,0.11 c -0.09,0.05 -0.16,0.09 -1.09,0.39 -6.74,2 -11.71,6.53 -14.5,11.86 -0.55,1 -0.6,1.05 -1.3,1.05 -0.3,0 -0.94,0 -0.94,-0.55 0,-0.66 2.53,-4.99 4.97,-7.33 H 460 c -0.84,0 -1.75,0 -1.75,-1 0,-0.98 0.96,-0.98 1.8,-0.98 z"
           inkscape:connector-curvature="0"
           style="fill:#000000;stroke-width:0" /></g>    </g>
    <g
       id="g3988"
       transform="matrix(0.358011,0,0,0.358011,64.453008,286.42387)"
       inkscape:export-filename="/home/quentin/p/overscore/doc/design/rle.png"
       inkscape:export-xdpi="200"
       inkscape:export-ydpi="200">
      <g
         word-spacing="normal"
         letter-spacing="normal"
         font-size-adjust="none"
         font-stretch="normal"
         font-weight="normal"
         font-variant="normal"
         font-style="normal"
         stroke-miterlimit="10.433"
         xml:space="preserve"
         transform="matrix(1.0629921,0,0,-1.0629921,-186.02362,789.27165)"
         id="g3990"
         style="font-style:normal;font-variant:normal;font-weight:normal;font-stretch:normal;letter-spacing:normal;word-spacing:normal;text-anchor:start;fill:none;stroke:#000000;stroke-linecap:butt;stroke-linejoin:miter;stroke-miterlimit:10.43299961;stroke-opacity:1;stroke-dasharray:none;stroke-dashoffset:0"><path
           id="path3992"
           d="m 481.38,423.14 0.47,0.11 0.48,0.12 0.48,0.14 0.48,0.15 0.49,0.16 0.48,0.18 0.48,0.19 0.47,0.2 0.47,0.22 0.47,0.23 0.46,0.24 0.45,0.25 0.43,0.27 0.43,0.28 0.42,0.29 0.4,0.3 0.39,0.31 0.37,0.32 0.36,0.34 0.33,0.35 0.32,0.35 0.29,0.37 0.28,0.38 0.25,0.39 0.22,0.4 0.2,0.41 0.17,0.42 0.15,0.43 0.11,0.44 0.08,0.45 0.05,0.46 0.02,0.47 c 0,4.28 -4.48,7.47 -11,7.47 h -14.2 c -1,0 -1.45,0 -1.45,-1 0,-0.55 0.45,-0.55 1.4,-0.55 0.1,0 1.05,0 1.89,-0.09 0.89,-0.11 1.35,-0.16 1.35,-0.8 0,-0.2 -0.05,-0.36 -0.21,-0.95 l -6.67,-26.75 c -0.5,-1.95 -0.59,-2.34 -4.53,-2.34 -0.91,0 -1.34,0 -1.34,-1 0,-0.55 0.59,-0.55 0.68,-0.55 1.41,0 4.89,0.16 6.29,0.16 1.39,0 4.93,-0.16 6.32,-0.16 0.41,0 1,0 1,1 0,0.55 -0.45,0.55 -1.39,0.55 -1.84,0 -3.25,0 -3.25,0.89 0,0.29 0.11,0.54 0.16,0.84 l 3.28,13.2 h 5.94 l -0.05,1.11 h -5.59 l 3.25,13 c 0.29,1.19 0.43,1.69 1.39,1.85 0.45,0.04 2.04,0.04 3.03,0.04 3.55,0 9.08,0 9.08,-4.93 0,-1.69 -0.8,-5.13 -2.75,-7.07 -1.28,-1.29 -3.92,-2.89 -8.41,-2.89 l 0.05,-1.11 c 4.53,0 5.42,-2.78 5.42,-4.53 0,-0.75 -0.39,-2.28 -0.69,-3.44 -0.36,-1.39 -0.79,-3.23 -0.79,-4.23 0,-5.37 5.96,-5.37 6.62,-5.37 4.23,0 5.97,5.03 5.97,5.73 0,0.59 -0.55,0.59 -0.59,0.59 -0.46,0 -0.55,-0.36 -0.65,-0.7 -1.25,-3.69 -3.39,-4.53 -4.54,-4.53 -1.64,0 -1.99,1.09 -1.99,3.05 0,1.53 0.3,4.07 0.5,5.67 0.1,0.7 0.21,1.64 0.21,2.34 0,3.83 -3.35,5.38 -4.69,5.88 z"
           inkscape:connector-curvature="0"
           style="fill:#000000;stroke-width:0" /><path
           id="path3994"
           d="m 512.32,436.34 0.04,0.16 0.04,0.16 0.04,0.15 0.04,0.15 0.04,0.13 0.04,0.13 0.05,0.13 0.06,0.11 0.06,0.12 0.06,0.1 0.07,0.1 0.08,0.09 0.09,0.09 0.1,0.08 0.11,0.08 0.12,0.07 0.14,0.06 0.14,0.06 0.17,0.06 0.17,0.05 0.1,0.02 0.09,0.02 0.11,0.02 0.1,0.02 0.12,0.02 0.11,0.02 0.12,0.02 0.13,0.01 0.13,0.01 0.13,0.02 0.14,0.01 0.15,0.01 0.15,0.01 0.15,0.01 0.17,0.01 0.16,0.01 0.18,0 0.18,0.01 0.18,0 0.19,0.01 0.2,0 0.2,0 0.21,0 0.22,0 c 1.48,0 1.89,0 1.89,0.96 0,0.59 -0.55,0.59 -0.8,0.59 -1.66,0 -5.73,-0.16 -7.37,-0.16 -1.5,0 -5.14,0.16 -6.63,0.16 -0.36,0 -0.95,0 -0.95,-1 0,-0.55 0.45,-0.55 1.39,-0.55 0.11,0 1.05,0 1.91,-0.09 0.89,-0.11 1.34,-0.16 1.34,-0.8 0,-0.2 -0.06,-0.36 -0.2,-0.95 l -6.68,-26.75 c -0.5,-1.95 -0.61,-2.34 -4.54,-2.34 -0.85,0 -1.35,0 -1.35,-1 0,-0.55 0.46,-0.55 1.35,-0.55 h 23.07 c 1.19,0 1.24,0 1.55,0.84 l 3.92,10.77 c 0.21,0.55 0.21,0.64 0.21,0.7 0,0.19 -0.14,0.55 -0.6,0.55 -0.45,0 -0.5,-0.25 -0.84,-1.05 -1.7,-4.59 -3.89,-10.26 -12.52,-10.26 h -4.67 c -0.7,0 -0.79,0 -1.09,0.04 -0.5,0.05 -0.66,0.1 -0.66,0.5 0,0.14 0,0.25 0.25,1.14 z"
           inkscape:connector-curvature="0"
           style="fill:#000000;stroke-width:0" /><path
           id="path3996"
           d="m 562.91,417.81 0.01,0.02 0.01,0.03 0.02,0.05 0.02,0.05 0.02,0.05 0.02,0.05 0.02,0.05 0.02,0.05 0.02,0.05 0,0.03 0.01,0.02 0.01,0.02 0.01,0.03 0.01,0.02 0,0.02 0.01,0.02 0,0.02 0.01,0.02 0,0.02 0.01,0.01 0,0.02 0,0.02 0.01,0.01 0,0.01 0,0.01 c 0,0.05 0,0.55 -0.6,0.55 -0.45,0 -0.54,-0.3 -0.64,-0.61 -3.25,-7.38 -5.07,-10.7 -13.61,-10.7 h -7.26 c -0.7,0 -0.8,0 -1.09,0.04 -0.5,0.05 -0.66,0.1 -0.66,0.5 0,0.14 0,0.25 0.25,1.14 l 3.39,13.61 h 4.94 c 4.23,0 4.23,-1.04 4.23,-2.29 0,-0.35 0,-0.96 -0.36,-2.44 -0.09,-0.25 -0.14,-0.41 -0.14,-0.55 0,-0.25 0.19,-0.55 0.64,-0.55 0.41,0 0.55,0.25 0.75,0.99 l 2.85,11.67 c 0,0.3 -0.25,0.55 -0.61,0.55 -0.44,0 -0.55,-0.3 -0.69,-0.91 -1.05,-3.78 -1.95,-4.92 -6.53,-4.92 h -4.69 l 3,12 c 0.44,1.75 0.5,1.94 2.69,1.94 h 7.01 c 6.08,0 7.58,-1.44 7.58,-5.53 0,-1.19 0,-1.29 -0.2,-2.64 0,-0.3 -0.05,-0.65 -0.05,-0.9 0,-0.25 0.16,-0.59 0.6,-0.59 0.56,0 0.6,0.3 0.7,1.25 l 1,8.61 c 0.14,1.34 -0.1,1.34 -1.35,1.34 h -25.15 c -1,0 -1.5,0 -1.5,-1 0,-0.54 0.45,-0.54 1.39,-0.54 1.84,0 3.23,0 3.23,-0.89 0,-0.21 0,-0.3 -0.25,-1.21 l -6.56,-26.34 c -0.5,-1.95 -0.61,-2.34 -4.55,-2.34 -0.84,0 -1.39,0 -1.39,-0.96 0,-0.59 0.46,-0.59 1.39,-0.59 h 25.86 c 1.16,0 1.21,0.05 1.55,0.84 z"
           inkscape:connector-curvature="0"
           style="fill:#000000;stroke-width:0" /><path
           id="path3998"
           d="m 615.39,422.5 0.14,0 0.14,0 0.15,0 0.07,0.01 0.07,0 0.07,0.01 0.07,0.01 0.07,0.01 0.07,0.01 0.07,0.01 0.07,0.02 0.06,0.02 0.07,0.02 0.06,0.02 0.05,0.03 0.06,0.03 0.05,0.04 0.05,0.03 0.05,0.05 0.04,0.04 0.04,0.05 0.02,0.03 0.02,0.03 0.02,0.02 0.01,0.03 0.02,0.03 0.01,0.04 0.01,0.03 0.01,0.04 0.01,0.03 0.01,0.04 0.01,0.04 0,0.04 0.01,0.04 0,0.04 0,0.04 0,0.05 c 0,1 -0.95,1 -1.64,1 h -29.84 c -0.7,0 -1.64,0 -1.64,-1 0,-0.98 0.94,-0.98 1.69,-0.98 z"
           inkscape:connector-curvature="0"
           style="fill:#000000;stroke-width:0" /><path
           id="path4000"
           d="m 615.43,412.82 0.07,0 0.07,0 0.13,0.01 0.14,0 0.07,0 0.07,0.01 0.07,0.01 0.07,0 0.07,0.01 0.06,0.02 0.07,0.01 0.07,0.02 0.06,0.02 0.06,0.02 0.06,0.02 0.06,0.03 0.05,0.03 0.06,0.04 0.05,0.04 0.04,0.04 0.04,0.05 0.03,0.02 0.01,0.03 0.02,0.02 0.02,0.03 0.02,0.03 0.01,0.03 0.02,0.03 0.01,0.03 0.01,0.04 0.01,0.03 0.01,0.04 0.01,0.04 0.01,0.04 0,0.04 0.01,0.04 0,0.04 0,0.05 0,0.04 c 0,1 -0.95,1 -1.68,1 h -29.75 c -0.75,0 -1.69,0 -1.69,-1 0,-1 0.94,-1 1.64,-1 z"
           inkscape:connector-curvature="0"
           style="fill:#000000;stroke-width:0" /><path
           id="path4002"
           d="m 650.2,394.25 -0.01,0.02 0,0.03 0,0.01 0,0.02 0,0.01 -0.01,0.02 0,0.01 -0.01,0.02 -0.01,0.02 -0.01,0.02 -0.01,0.02 -0.02,0.03 -0.01,0.02 -0.02,0.03 -0.02,0.03 -0.03,0.03 -0.02,0.03 -0.03,0.04 -0.02,0.02 -0.01,0.02 -0.02,0.02 -0.02,0.02 -0.02,0.02 -0.02,0.03 -0.02,0.02 -0.02,0.02 -0.02,0.03 -0.03,0.02 -0.02,0.03 -0.03,0.03 -0.02,0.03 -0.03,0.03 -0.03,0.03 -0.03,0.03 -0.03,0.03 -0.03,0.03 -0.04,0.04 -0.03,0.03 -0.03,0.04 -0.04,0.03 -0.04,0.04 -0.04,0.04 c -6.22,6.28 -7.81,15.69 -7.81,23.31 0,8.67 1.89,17.35 8.01,23.56 0.65,0.61 0.65,0.71 0.65,0.86 0,0.35 -0.19,0.49 -0.49,0.49 -0.5,0 -4.98,-3.38 -7.92,-9.7 -2.55,-5.49 -3.14,-11.02 -3.14,-15.21 0,-3.89 0.55,-9.9 3.28,-15.54 2.98,-6.13 7.28,-9.36 7.78,-9.36 0.3,0 0.49,0.14 0.49,0.5 z"
           inkscape:connector-curvature="0"
           style="fill:#000000;stroke-width:0" /><path
           id="path4004"
           d="m 667.67,414.42 v -4.33 c 0,-1.8 -0.1,-2.34 -3.78,-2.34 h -1.05 v -1.55 c 2.05,0.16 4.64,0.16 6.73,0.16 2.1,0 4.74,0 6.77,-0.16 v 1.55 h -1.05 c -3.69,0 -3.78,0.54 -3.78,2.34 v 4.33 h 4.99 v 1.54 h -4.99 v 22.68 c 0,1 0,1.29 -0.79,1.29 -0.46,0 -0.6,0 -1,-0.61 l -15.3,-23.36 h 1.4 l 12.16,18.58 v -18.58 h -12.16 -1.4 v -1.54 z"
           inkscape:connector-curvature="0"
           style="fill:#000000;stroke-width:0" /><path
           id="path4006"
           d="m 688.09,406.25 0,0.3 -0.01,0.3 -0.02,0.29 -0.02,0.28 -0.03,0.27 -0.04,0.26 -0.05,0.26 -0.05,0.24 -0.06,0.24 -0.06,0.23 -0.07,0.22 -0.08,0.21 -0.08,0.2 -0.09,0.19 -0.1,0.19 -0.1,0.17 -0.1,0.16 -0.12,0.16 -0.11,0.14 -0.13,0.13 -0.13,0.13 -0.13,0.11 -0.14,0.1 -0.14,0.1 -0.15,0.08 -0.15,0.07 -0.16,0.06 -0.17,0.05 -0.16,0.04 -0.18,0.03 -0.17,0.01 -0.18,0.01 c -1.64,0 -2.64,-1.25 -2.64,-2.64 0,-1.34 1,-2.64 2.64,-2.64 0.59,0 1.25,0.2 1.75,0.64 0.14,0.11 0.2,0.16 0.25,0.16 0.04,0 0.09,-0.05 0.09,-0.75 0,-3.69 -1.73,-6.68 -3.39,-8.32 -0.55,-0.54 -0.55,-0.65 -0.55,-0.79 0,-0.36 0.25,-0.55 0.5,-0.55 0.55,0 4.53,3.83 4.53,9.66 z"
           inkscape:connector-curvature="0"
           style="fill:#000000;stroke-width:0" /><path
           id="path4008"
           d="m 706.39,410.04 5.28,5.13 c 7.77,6.87 10.77,9.56 10.77,14.54 0,5.69 -4.49,9.68 -10.56,9.68 -5.65,0 -9.33,-4.6 -9.33,-9.03 0,-2.79 2.5,-2.79 2.64,-2.79 0.86,0 2.59,0.6 2.59,2.64 0,1.3 -0.89,2.6 -2.64,2.6 -0.39,0 -0.5,0 -0.64,-0.05 1.14,3.24 3.83,5.08 6.72,5.08 4.53,0 6.69,-4.05 6.69,-8.13 0,-3.98 -2.5,-7.92 -5.24,-11.01 l -9.56,-10.66 c -0.56,-0.54 -0.56,-0.64 -0.56,-1.84 h 18.48 l 1.41,8.67 h -1.25 c -0.25,-1.5 -0.6,-3.69 -1.1,-4.44 -0.36,-0.39 -3.64,-0.39 -4.73,-0.39 z"
           inkscape:connector-curvature="0"
           style="fill:#000000;stroke-width:0" /><path
           id="path4010"
           d="m 735.13,406.25 0,0.3 -0.02,0.3 -0.01,0.29 -0.03,0.28 -0.03,0.27 -0.04,0.26 -0.04,0.26 -0.05,0.24 -0.06,0.24 -0.07,0.23 -0.07,0.22 -0.07,0.21 -0.09,0.2 -0.09,0.19 -0.09,0.19 -0.1,0.17 -0.11,0.16 -0.11,0.16 -0.12,0.14 -0.12,0.13 -0.13,0.13 -0.13,0.11 -0.14,0.1 -0.15,0.1 -0.15,0.08 -0.15,0.07 -0.16,0.06 -0.16,0.05 -0.17,0.04 -0.17,0.03 -0.18,0.01 -0.18,0.01 c -1.64,0 -2.64,-1.25 -2.64,-2.64 0,-1.34 1,-2.64 2.64,-2.64 0.59,0 1.25,0.2 1.75,0.64 0.14,0.11 0.21,0.16 0.25,0.16 0.05,0 0.09,-0.05 0.09,-0.75 0,-3.69 -1.73,-6.68 -3.38,-8.32 -0.55,-0.54 -0.55,-0.65 -0.55,-0.79 0,-0.36 0.25,-0.55 0.5,-0.55 0.55,0 4.53,3.83 4.53,9.66 z"
           inkscape:connector-curvature="0"
           style="fill:#000000;stroke-width:0" /><path
           id="path4012"
           d="m 753.67,422.54 v 1.19 c 0,12.61 6.17,14.41 8.72,14.41 1.19,0 3.28,-0.3 4.38,-2 -0.74,0 -2.74,0 -2.74,-2.24 0,-1.54 1.2,-2.29 2.3,-2.29 0.79,0 2.28,0.45 2.28,2.39 0,3 -2.19,5.39 -6.31,5.39 -6.39,0 -13.11,-6.44 -13.11,-17.44 0,-13.31 5.78,-16.84 10.4,-16.84 5.53,0 10.27,4.68 10.27,11.25 0,6.32 -4.44,11.12 -9.97,11.12 l -0.05,-1.16 c 0.8,0 3.1,0 4.64,-3.09 0.9,-1.83 0.9,-4.37 0.9,-6.81 0,-2.39 0,-4.89 -0.85,-6.69 -1.5,-2.98 -3.78,-3.23 -4.94,-3.23 h 0 c -3.14,0 -4.62,2.98 -4.92,3.73 -0.9,2.34 -0.9,6.33 -0.9,7.23 0,3.88 1.59,8.86 6.07,8.86 l 0.05,1.16 c -3.37,0 -5.22,-2.55 -6.22,-4.94 z"
           inkscape:connector-curvature="0"
           style="fill:#000000;stroke-width:0" /><path
           id="path4014"
           d="m 782.16,406.25 0,0.3 -0.01,0.3 -0.02,0.29 -0.03,0.28 -0.03,0.27 -0.04,0.26 -0.04,0.26 -0.05,0.24 -0.06,0.24 -0.07,0.23 -0.07,0.22 -0.07,0.21 -0.09,0.2 -0.09,0.19 -0.09,0.19 -0.1,0.17 -0.11,0.16 -0.11,0.16 -0.12,0.14 -0.12,0.13 -0.13,0.13 -0.13,0.11 -0.14,0.1 -0.15,0.1 -0.14,0.08 -0.16,0.07 -0.16,0.06 -0.16,0.05 -0.17,0.04 -0.17,0.03 -0.18,0.01 -0.18,0.01 c -1.64,0 -2.64,-1.25 -2.64,-2.64 0,-1.34 1,-2.64 2.64,-2.64 0.6,0 1.25,0.2 1.75,0.64 0.14,0.11 0.21,0.16 0.25,0.16 0.05,0 0.1,-0.05 0.1,-0.75 0,-3.69 -1.74,-6.68 -3.39,-8.32 -0.55,-0.54 -0.55,-0.65 -0.55,-0.79 0,-0.36 0.25,-0.55 0.5,-0.55 0.55,0 4.53,3.83 4.53,9.66 z"
           inkscape:connector-curvature="0"
           style="fill:#000000;stroke-width:0" /><path
           id="path4016"
           d="m 800.46,410.04 5.28,5.13 c 7.76,6.87 10.76,9.56 10.76,14.54 0,5.69 -4.48,9.68 -10.56,9.68 -5.64,0 -9.33,-4.6 -9.33,-9.03 0,-2.79 2.5,-2.79 2.64,-2.79 0.86,0 2.6,0.6 2.6,2.64 0,1.3 -0.89,2.6 -2.64,2.6 -0.39,0 -0.5,0 -0.64,-0.05 1.14,3.24 3.83,5.08 6.71,5.08 4.54,0 6.69,-4.05 6.69,-8.13 0,-3.98 -2.5,-7.92 -5.23,-11.01 l -9.56,-10.66 c -0.57,-0.54 -0.57,-0.64 -0.57,-1.84 h 18.49 l 1.4,8.67 h -1.25 c -0.25,-1.5 -0.59,-3.69 -1.09,-4.44 -0.36,-0.39 -3.64,-0.39 -4.73,-0.39 z"
           inkscape:connector-curvature="0"
           style="fill:#000000;stroke-width:0" /><path
           id="path4018"
           d="m 829.2,406.25 -0.01,0.3 -0.01,0.3 -0.02,0.29 -0.02,0.28 -0.03,0.27 -0.04,0.26 -0.05,0.26 -0.05,0.24 -0.06,0.24 -0.06,0.23 -0.07,0.22 -0.08,0.21 -0.08,0.2 -0.09,0.19 -0.1,0.19 -0.1,0.17 -0.1,0.16 -0.11,0.16 -0.12,0.14 -0.13,0.13 -0.12,0.13 -0.14,0.11 -0.14,0.1 -0.14,0.1 -0.15,0.08 -0.15,0.07 -0.16,0.06 -0.16,0.05 -0.17,0.04 -0.17,0.03 -0.18,0.01 -0.18,0.01 c -1.64,0 -2.64,-1.25 -2.64,-2.64 0,-1.34 1,-2.64 2.64,-2.64 0.59,0 1.25,0.2 1.75,0.64 0.14,0.11 0.2,0.16 0.25,0.16 0.04,0 0.09,-0.05 0.09,-0.75 0,-3.69 -1.73,-6.68 -3.39,-8.32 -0.55,-0.54 -0.55,-0.65 -0.55,-0.79 0,-0.36 0.25,-0.55 0.5,-0.55 0.55,0 4.54,3.83 4.54,9.66 z"
           inkscape:connector-curvature="0"
           style="fill:#000000;stroke-width:0" /><path
           id="path4020"
           d="m 863.54,416.21 -0.01,0.56 -0.04,0.54 -0.06,0.54 -0.08,0.53 -0.1,0.53 -0.12,0.51 -0.15,0.5 -0.16,0.5 -0.19,0.48 -0.2,0.47 -0.23,0.46 -0.24,0.44 -0.26,0.43 -0.28,0.41 -0.29,0.4 -0.31,0.38 -0.33,0.36 -0.34,0.35 -0.35,0.32 -0.37,0.31 -0.39,0.29 -0.39,0.26 -0.41,0.25 -0.42,0.22 -0.44,0.2 -0.44,0.17 -0.46,0.15 -0.46,0.13 -0.47,0.09 -0.49,0.07 -0.49,0.05 -0.5,0.01 c -2.39,0 -4.53,-0.8 -6.33,-2.53 v 9.7 c 1,-0.29 2.64,-0.64 4.24,-0.64 6.12,0 9.61,4.53 9.61,5.19 0,0.3 -0.14,0.55 -0.5,0.55 -0.05,0 -0.14,0 -0.39,-0.16 -1,-0.45 -3.44,-1.44 -6.79,-1.44 -1.98,0 -4.28,0.35 -6.62,1.39 -0.39,0.14 -0.5,0.14 -0.59,0.14 -0.5,0 -0.5,-0.39 -0.5,-1.18 v -14.75 c 0,-0.89 0,-1.3 0.7,-1.3 0.34,0 0.44,0.16 0.64,0.45 0.55,0.8 2.39,3.49 6.42,3.49 2.59,0 3.84,-2.3 4.24,-3.19 0.81,-1.84 0.9,-3.78 0.9,-6.28 0,-1.74 0,-4.74 -1.2,-6.83 -1.19,-1.94 -3.03,-3.23 -5.33,-3.23 -3.64,0 -6.47,2.64 -7.33,5.57 0.16,-0.04 0.31,-0.09 0.86,-0.09 1.64,0 2.49,1.25 2.49,2.44 0,1.2 -0.85,2.44 -2.49,2.44 -0.7,0 -2.45,-0.35 -2.45,-2.65 0,-4.28 3.44,-9.1 9.03,-9.1 5.77,0 10.86,4.78 10.86,11.1 z"
           inkscape:connector-curvature="0"
           style="fill:#000000;stroke-width:0" /><path
           id="path4022"
           d="m 876.23,406.25 0,0.3 -0.01,0.3 -0.02,0.29 -0.03,0.28 -0.03,0.27 -0.04,0.26 -0.04,0.26 -0.05,0.24 -0.06,0.24 -0.07,0.23 -0.07,0.22 -0.07,0.21 -0.09,0.2 -0.09,0.19 -0.09,0.19 -0.1,0.17 -0.11,0.16 -0.11,0.16 -0.12,0.14 -0.12,0.13 -0.13,0.13 -0.13,0.11 -0.14,0.1 -0.15,0.1 -0.14,0.08 -0.16,0.07 -0.16,0.06 -0.16,0.05 -0.17,0.04 -0.17,0.03 -0.18,0.01 -0.18,0.01 c -1.64,0 -2.64,-1.25 -2.64,-2.64 0,-1.34 1,-2.64 2.64,-2.64 0.6,0 1.25,0.2 1.75,0.64 0.14,0.11 0.21,0.16 0.25,0.16 0.05,0 0.1,-0.05 0.1,-0.75 0,-3.69 -1.74,-6.68 -3.39,-8.32 -0.55,-0.54 -0.55,-0.65 -0.55,-0.79 0,-0.36 0.25,-0.55 0.5,-0.55 0.55,0 4.53,3.83 4.53,9.66 z"
           inkscape:connector-curvature="0"
           style="fill:#000000;stroke-width:0" /><path
           id="path4024"
           d="m 902.84,438.09 0,0.05 0,0.06 0,0.05 0,0.05 0,0.05 0,0.05 -0.01,0.04 0,0.05 0,0.04 0,0.04 0,0.04 0,0.04 0,0.04 -0.01,0.03 0,0.04 0,0.03 -0.01,0.07 -0.01,0.06 -0.01,0.05 -0.01,0.05 -0.02,0.05 -0.02,0.04 -0.02,0.04 -0.03,0.03 -0.03,0.03 -0.03,0.03 -0.03,0.03 -0.04,0.02 -0.05,0.02 -0.02,0.01 -0.02,0.01 -0.03,0 -0.03,0.01 -0.03,0.01 -0.03,0 -0.03,0.01 -0.03,0 -0.03,0.01 -0.04,0 -0.03,0 -0.04,0.01 -0.04,0 -0.04,0 -0.04,0 -0.04,0 -0.05,0 -0.04,0.01 -0.05,0 -0.05,0 -0.05,0 -0.05,0 c -3.1,-3.19 -7.47,-3.19 -9.07,-3.19 v -1.55 c 1,0 3.94,0 6.52,1.3 v -25.81 c 0,-1.8 -0.14,-2.39 -4.63,-2.39 h -1.59 v -1.55 c 1.75,0.16 6.08,0.16 8.06,0.16 2,0 6.33,0 8.08,-0.16 v 1.55 h -1.59 c -4.49,0 -4.64,0.54 -4.64,2.39 z"
           inkscape:connector-curvature="0"
           style="fill:#000000;stroke-width:0" /><path
           id="path4026"
           d="m 923.26,406.25 0,0.3 -0.01,0.3 -0.02,0.29 -0.02,0.28 -0.04,0.27 -0.03,0.26 -0.05,0.26 -0.05,0.24 -0.06,0.24 -0.06,0.23 -0.07,0.22 -0.08,0.21 -0.08,0.2 -0.09,0.19 -0.1,0.19 -0.1,0.17 -0.11,0.16 -0.11,0.16 -0.12,0.14 -0.12,0.13 -0.13,0.13 -0.13,0.11 -0.14,0.1 -0.14,0.1 -0.15,0.08 -0.16,0.07 -0.16,0.06 -0.16,0.05 -0.17,0.04 -0.17,0.03 -0.18,0.01 -0.18,0.01 c -1.64,0 -2.64,-1.25 -2.64,-2.64 0,-1.34 1,-2.64 2.64,-2.64 0.6,0 1.25,0.2 1.75,0.64 0.15,0.11 0.21,0.16 0.25,0.16 0.05,0 0.1,-0.05 0.1,-0.75 0,-3.69 -1.74,-6.68 -3.39,-8.32 -0.55,-0.54 -0.55,-0.65 -0.55,-0.79 0,-0.36 0.25,-0.55 0.5,-0.55 0.55,0 4.53,3.83 4.53,9.66 z"
           inkscape:connector-curvature="0"
           style="fill:#000000;stroke-width:0" /><path
           id="path4028"
           d="m 941.81,422.54 v 1.19 c 0,12.61 6.17,14.41 8.72,14.41 1.19,0 3.28,-0.3 4.37,-2 -0.73,0 -2.73,0 -2.73,-2.24 0,-1.54 1.2,-2.29 2.3,-2.29 0.79,0 2.28,0.45 2.28,2.39 0,3 -2.19,5.39 -6.32,5.39 -6.39,0 -13.11,-6.44 -13.11,-17.44 0,-13.31 5.78,-16.84 10.41,-16.84 5.53,0 10.27,4.68 10.27,11.25 0,6.32 -4.44,11.12 -9.97,11.12 l -0.05,-1.16 c 0.8,0 3.09,0 4.64,-3.09 0.89,-1.83 0.89,-4.37 0.89,-6.81 0,-2.39 0,-4.89 -0.84,-6.69 -1.5,-2.98 -3.78,-3.23 -4.94,-3.23 h 0 c -3.14,0 -4.63,2.98 -4.92,3.73 -0.91,2.34 -0.91,6.33 -0.91,7.23 0,3.88 1.6,8.86 6.08,8.86 l 0.05,1.16 c -3.38,0 -5.22,-2.55 -6.22,-4.94 z"
           inkscape:connector-curvature="0"
           style="fill:#000000;stroke-width:0" /><path
           id="path4030"
           d="m 970.3,406.25 -0.01,0.3 -0.01,0.3 -0.02,0.29 -0.02,0.28 -0.03,0.27 -0.04,0.26 -0.04,0.26 -0.06,0.24 -0.05,0.24 -0.07,0.23 -0.07,0.22 -0.08,0.21 -0.08,0.2 -0.09,0.19 -0.09,0.19 -0.1,0.17 -0.11,0.16 -0.11,0.16 -0.12,0.14 -0.12,0.13 -0.13,0.13 -0.14,0.11 -0.14,0.1 -0.14,0.1 -0.15,0.08 -0.15,0.07 -0.16,0.06 -0.16,0.05 -0.17,0.04 -0.17,0.03 -0.18,0.01 -0.18,0.01 c -1.64,0 -2.64,-1.25 -2.64,-2.64 0,-1.34 1,-2.64 2.64,-2.64 0.59,0 1.25,0.2 1.75,0.64 0.14,0.11 0.2,0.16 0.25,0.16 0.05,0 0.09,-0.05 0.09,-0.75 0,-3.69 -1.73,-6.68 -3.39,-8.32 -0.54,-0.54 -0.54,-0.65 -0.54,-0.79 0,-0.36 0.25,-0.55 0.5,-0.55 0.54,0 4.53,3.83 4.53,9.66 z"
           inkscape:connector-curvature="0"
           style="fill:#000000;stroke-width:0" /><path
           id="path4032"
           d="m 988.59,410.04 5.29,5.13 c 7.72,6.87 10.72,9.56 10.72,14.54 0,5.69 -4.4,9.68 -10.52,9.68 -5.64,0 -9.33,-4.6 -9.33,-9.03 0,-2.79 2.5,-2.79 2.64,-2.79 0.86,0 2.59,0.6 2.59,2.64 0,1.3 -0.89,2.6 -2.64,2.6 -0.39,0 -0.5,0 -0.64,-0.05 1.14,3.24 3.83,5.08 6.72,5.08 4.53,0 6.68,-4.05 6.68,-8.13 0,-3.98 -2.49,-7.92 -5.22,-11.01 l -9.57,-10.66 c -0.56,-0.54 -0.56,-0.64 -0.56,-1.84 h 18.45 l 1.4,8.67 h -1.2 c -0.3,-1.5 -0.6,-3.69 -1.1,-4.44 -0.4,-0.39 -3.64,-0.39 -4.74,-0.39 z"
           inkscape:connector-curvature="0"
           style="fill:#000000;stroke-width:0" /><path
           id="path4034"
           d="m 1017.3,406.25 0,0.3 0,0.3 0,0.29 0,0.28 -0.1,0.27 0,0.26 0,0.26 -0.1,0.24 -0.1,0.24 0,0.23 -0.1,0.22 -0.1,0.21 0,0.2 -0.1,0.19 -0.1,0.19 -0.1,0.17 -0.1,0.16 -0.1,0.16 -0.2,0.14 -0.1,0.13 -0.1,0.13 -0.2,0.11 -0.1,0.1 -0.1,0.1 -0.2,0.08 -0.1,0.07 -0.2,0.06 -0.2,0.05 -0.1,0.04 -0.2,0.03 -0.2,0.01 -0.2,0.01 c -1.6,0 -2.6,-1.25 -2.6,-2.64 0,-1.34 1,-2.64 2.6,-2.64 0.6,0 1.3,0.2 1.8,0.64 0.1,0.11 0.2,0.16 0.2,0.16 0.1,0 0.1,-0.05 0.1,-0.75 0,-3.69 -1.7,-6.68 -3.4,-8.32 -0.5,-0.54 -0.5,-0.65 -0.5,-0.79 0,-0.36 0.2,-0.55 0.5,-0.55 0.5,0 4.5,3.83 4.5,9.66 z"
           inkscape:connector-curvature="0"
           style="fill:#000000;stroke-width:0" /><path
           id="path4036"
           d="m 1043.8,423.73 0.3,0.13 0.4,0.15 0.4,0.15 0.3,0.17 0.4,0.18 0.3,0.19 0.3,0.2 0.4,0.22 0.3,0.22 0.3,0.23 0.3,0.24 0.2,0.25 0.3,0.26 0.3,0.27 0.2,0.27 0.3,0.29 0.2,0.29 0.2,0.3 0.2,0.3 0.2,0.32 0.2,0.32 0.1,0.32 0.2,0.33 0.1,0.34 0.1,0.34 0.1,0.34 0.1,0.35 0.1,0.36 0,0.36 0.1,0.36 0,0.36 0,0.37 c 0,4.08 -4.4,6.88 -9.1,6.88 -5.1,0 -8.9,-3 -8.9,-6.78 0,-1.65 1.1,-2.6 2.6,-2.6 1.5,0 2.5,1.1 2.5,2.55 0,2.48 -2.3,2.48 -3.1,2.48 1.6,2.44 4.9,3.1 6.7,3.1 2,0 4.7,-1.1 4.7,-5.58 0,-0.61 -0.1,-3.49 -1.4,-5.69 -1.5,-2.39 -3.1,-2.53 -4.4,-2.59 -0.4,-0.05 -1.6,-0.14 -1.9,-0.14 -0.4,-0.05 -0.8,-0.1 -0.8,-0.6 0,-0.54 0.4,-0.54 1.2,-0.54 h 2.2 c 4.1,0 5.9,-3.39 5.9,-8.29 0,-6.76 -3.4,-8.21 -5.6,-8.21 -2.1,0 -5.9,0.84 -7.6,3.78 1.7,-0.24 3.3,0.86 3.3,2.75 0,1.79 -1.4,2.78 -2.8,2.78 -1.2,0 -2.8,-0.69 -2.8,-2.89 0,-4.53 4.6,-7.81 10,-7.81 6.1,0 10.7,4.53 10.7,9.6 0,4.1 -3.2,7.97 -8.3,9.02 z"
           inkscape:connector-curvature="0"
           style="fill:#000000;stroke-width:0" /><path
           id="path4038"
           d="m 1068.6,418.65 0,0.37 0,0.39 0,0.39 0,0.41 0,0.84 -0.1,0.88 -0.1,0.92 -0.1,0.95 -0.1,0.97 -0.2,1.01 -0.2,1.02 -0.2,1.03 -0.3,1.05 -0.3,1.06 -0.3,1.07 -0.4,1.07 -0.2,0.53 -0.3,0.53 -0.2,0.53 -0.2,0.53 c -3,6.12 -7.3,9.36 -7.8,9.36 -0.3,0 -0.5,-0.19 -0.5,-0.49 0,-0.15 0,-0.25 0.9,-1.15 4.9,-4.92 7.8,-12.85 7.8,-23.27 0,-8.51 -1.9,-17.28 -8.1,-23.56 -0.6,-0.59 -0.6,-0.7 -0.6,-0.84 0,-0.3 0.2,-0.5 0.5,-0.5 0.5,0 5,3.39 7.9,9.71 2.6,5.47 3.1,11 3.1,15.19 z"
           inkscape:connector-curvature="0"
           style="fill:#000000;stroke-width:0" /></g>    </g>
    <rect
       y="423.02036"
       x="301.09909"
       height="6.5851598"
       width="6.5851598"
       id="rect4165"
       style="fill:#4d4d4d;stroke:#000000;stroke-width:1;stroke-miterlimit:4;stroke-opacity:1;stroke-dasharray:none;stroke-dashoffset:0"
       inkscape:export-filename="/home/quentin/p/overscore/doc/design/rle.png"
       inkscape:export-xdpi="200"
       inkscape:export-ydpi="200" />
    <rect
       style="fill:#ffffff;stroke:#000000;stroke-width:1;stroke-miterlimit:4;stroke-opacity:1;stroke-dasharray:none;stroke-dashoffset:0"
       id="rect4167"
       width="6.5851598"
       height="6.5851598"
       x="283.51202"
       y="423.02036"
       inkscape:export-filename="/home/quentin/p/overscore/doc/design/rle.png"
       inkscape:export-xdpi="200"
       inkscape:export-ydpi="200" />
    <rect
       style="fill:#4d4d4d;stroke:#000000;stroke-width:1;stroke-miterlimit:4;stroke-opacity:1;stroke-dasharray:none;stroke-dashoffset:0"
       id="rect4169"
       width="6.5851598"
       height="6.5851598"
       x="336.95346"
       y="423.02036"
       inkscape:export-filename="/home/quentin/p/overscore/doc/design/rle.png"
       inkscape:export-xdpi="200"
       inkscape:export-ydpi="200" />
    <rect
       y="423.02036"
       x="319.36639"
       height="6.5851598"
       width="6.5851598"
       id="rect4171"
       style="fill:#ffffff;stroke:#000000;stroke-width:1;stroke-miterlimit:4;stroke-opacity:1;stroke-dasharray:none;stroke-dashoffset:0"
       inkscape:export-filename="/home/quentin/p/overscore/doc/design/rle.png"
       inkscape:export-xdpi="200"
       inkscape:export-ydpi="200" />
    <rect
       y="423.02036"
       x="372.80783"
       height="6.5851598"
       width="6.5851598"
       id="rect4173"
       style="fill:#4d4d4d;stroke:#000000;stroke-width:1;stroke-miterlimit:4;stroke-opacity:1;stroke-dasharray:none;stroke-dashoffset:0"
       inkscape:export-filename="/home/quentin/p/overscore/doc/design/rle.png"
       inkscape:export-xdpi="200"
       inkscape:export-ydpi="200" />
    <rect
       style="fill:#ffffff;stroke:#000000;stroke-width:1;stroke-miterlimit:4;stroke-opacity:1;stroke-dasharray:none;stroke-dashoffset:0"
       id="rect4175"
       width="6.5851598"
       height="6.5851598"
       x="355.22076"
       y="423.02036"
       inkscape:export-filename="/home/quentin/p/overscore/doc/design/rle.png"
       inkscape:export-xdpi="200"
       inkscape:export-ydpi="200" />
    <rect
       y="423.02036"
       x="391.07513"
       height="6.5851598"
       width="6.5851598"
       id="rect4179"
       style="fill:#ffffff;stroke:#000000;stroke-width:1;stroke-miterlimit:4;stroke-opacity:1;stroke-dasharray:none;stroke-dashoffset:0"
       inkscape:export-filename="/home/quentin/p/overscore/doc/design/rle.png"
       inkscape:export-xdpi="200"
       inkscape:export-ydpi="200" />
    <g
       id="g4284"
       transform="matrix(0.33123711,0,0,0.33123711,130.94806,341.19934)"
       inkscape:export-filename="/home/quentin/p/overscore/doc/design/rle.png"
       inkscape:export-xdpi="200"
       inkscape:export-ydpi="200">
      <g
         id="content"
         transform="matrix(1.0629921,0,0,-1.0629921,-186.02362,789.27165)"
         xml:space="preserve"
         stroke-miterlimit="10.433"
         font-style="normal"
         font-variant="normal"
         font-weight="normal"
         font-stretch="normal"
         font-size-adjust="none"
         letter-spacing="normal"
         word-spacing="normal"
         style="font-style:normal;font-variant:normal;font-weight:normal;font-stretch:normal;letter-spacing:normal;word-spacing:normal;text-anchor:start;fill:none;stroke:#000000;stroke-linecap:butt;stroke-linejoin:miter;stroke-miterlimit:10.43299961;stroke-opacity:1;stroke-dasharray:none;stroke-dashoffset:0"><path
           d="m 472.91,425.53 -6.37,1.54 c -3.1,0.75 -5.04,3.44 -5.04,6.33 0,3.49 2.69,6.53 6.58,6.53 8.31,0 9.41,-8.17 9.71,-10.42 0.04,-0.3 0.04,-0.59 0.6,-0.59 0.65,0 0.65,0.25 0.65,1.2 v 10 c 0,0.86 0,1.2 -0.55,1.2 -0.35,0 -0.41,-0.04 -0.75,-0.65 L 476,437.84 c -1.5,1.44 -3.54,3.48 -7.98,3.48 -5.53,0 -9.7,-4.39 -9.7,-9.67 0,-4.12 2.64,-7.76 6.51,-9.11 0.55,-0.2 3.1,-0.79 6.58,-1.64 1.34,-0.36 2.84,-0.7 4.23,-2.54 1.05,-1.3 1.55,-2.94 1.55,-4.58 0,-3.55 -2.48,-7.13 -6.67,-7.13 -1.45,0 -5.23,0.25 -7.88,2.69 -2.89,2.69 -3.04,5.87 -3.09,7.67 -0.05,0.5 -0.44,0.5 -0.59,0.5 -0.64,0 -0.64,-0.36 -0.64,-1.25 v -9.97 c 0,-0.84 0,-1.18 0.54,-1.18 0.35,0 0.39,0.09 0.74,0.64 0,0.04 0.15,0.2 1.79,2.84 1.55,-1.69 4.74,-3.48 9.18,-3.48 5.82,0 9.81,4.87 9.81,10.35 0,4.99 -3.28,9.07 -7.47,10.07 z"
           id="path4287"
           inkscape:connector-curvature="0"
           style="fill:#000000;stroke-width:0" /><path
           d="m 491.86,426.12 h 7.13 v 1.55 h -7.13 v 9.17 h -1.25 c -0.04,-4.08 -1.54,-9.42 -6.42,-9.61 v -1.11 h 4.24 v -13.75 c 0,-6.12 4.62,-6.72 6.42,-6.72 3.53,0 4.94,3.53 4.94,6.72 v 2.84 h -1.25 v -2.73 c 0,-3.69 -1.5,-5.58 -3.35,-5.58 -3.33,0 -3.33,4.53 -3.33,5.38 z"
           id="path4289"
           inkscape:connector-curvature="0"
           style="fill:#000000;stroke-width:0" /><path
           d="m 519.15,409.98 0.02,-0.19 0.03,-0.18 0.04,-0.19 0.04,-0.18 0.05,-0.19 0.05,-0.18 0.06,-0.18 0.07,-0.18 0.08,-0.18 0.08,-0.17 0.09,-0.18 0.09,-0.16 0.1,-0.16 0.11,-0.16 0.11,-0.16 0.12,-0.14 0.13,-0.14 0.13,-0.14 0.14,-0.13 0.14,-0.12 0.15,-0.12 0.16,-0.1 0.16,-0.1 0.17,-0.09 0.18,-0.08 0.18,-0.07 0.18,-0.06 0.2,-0.05 0.2,-0.04 0.2,-0.03 0.21,-0.02 0.22,-0.01 c 1.03,0 4.08,0.71 4.08,4.74 v 2.78 h -1.25 v -2.78 c 0,-2.89 -1.24,-3.19 -1.8,-3.19 -1.64,0 -1.84,2.23 -1.84,2.48 v 9.97 c 0,2.1 0,4.03 -1.78,5.88 -1.96,1.93 -4.44,2.73 -6.83,2.73 -4.1,0 -7.53,-2.33 -7.53,-5.62 0,-1.49 1,-2.35 2.29,-2.35 1.39,0 2.3,1 2.3,2.3 0,0.59 -0.25,2.23 -2.55,2.3 1.35,1.73 3.78,2.28 5.38,2.28 2.45,0 5.28,-1.94 5.28,-6.38 v -1.84 -1.05 -4.98 c 0,-4.74 -3.58,-6.42 -5.83,-6.42 -2.44,0 -4.48,1.75 -4.48,4.23 0,2.73 2.09,6.88 10.31,7.17 h 0 v 1.05 c -2.53,-0.14 -6.02,-0.3 -9.16,-1.8 -3.73,-1.69 -4.98,-4.28 -4.98,-6.47 0,-4.03 4.83,-5.28 7.97,-5.28 3.29,0 5.58,1.99 6.53,4.33 z"
           id="path4291"
           inkscape:connector-curvature="0"
           style="fill:#000000;stroke-width:0" /><path
           d="m 560.39,426.12 v -16.14 c 0,-2.23 -0.55,-2.23 -3.88,-2.23 v -1.55 c 1.64,0.05 4.28,0.16 5.53,0.16 1.24,0 3.69,-0.11 5.53,-0.16 v 1.55 c -3.34,0 -3.89,0 -3.89,2.23 v 30.8 l -1.79,-0.3 c -0.21,0 -0.25,0.05 -0.46,0.14 -1.59,0.7 -3.62,0.7 -4.17,0.7 l -0.06,-1.09 c 0.45,0 1.8,0 3.19,-0.45 -0.44,-0.21 -1.24,-0.71 -1.24,-1.99 0,-0.9 0.39,-1.65 1.24,-1.95 v -8.17 h -10.66 v 5.64 c 0,4.62 3.78,6.92 7.47,6.92 l 0.06,1.09 c -3.5,0 -6.19,-1.09 -8.03,-2.59 -1.05,2.05 -3.83,2.59 -5.88,2.59 l -0.04,-1.09 c 0.84,0 2.53,-0.16 3.83,-0.95 -0.5,-0.1 -1.79,-0.55 -1.79,-2.19 0,-0.75 0.3,-1.59 1.4,-2 -0.16,-0.55 -0.16,-1.19 -0.16,-1.73 v -5.69 h -10.66 v 5.64 c 0,4.83 4.04,6.92 7.38,6.92 l 0.04,1.09 c -4.88,0 -10.56,-2.64 -10.56,-7.96 v -5.69 h -3.94 v -1.55 h 3.94 v -16.14 c 0,-2.23 -0.54,-2.23 -3.89,-2.23 v -1.55 c 1.66,0.05 4.28,0.16 5.53,0.16 1.25,0 3.69,-0.11 5.54,-0.16 v 1.55 c -3.33,0 -3.9,0 -3.9,2.23 v 16.14 h 10.52 v -16.14 c 0,-2.23 -0.55,-2.23 -3.87,-2.23 v -1.55 c 1.63,0.05 4.28,0.16 5.51,0.16 1.25,0 3.69,-0.11 5.53,-0.16 v 1.55 c -3.33,0 -3.87,0 -3.87,2.23 v 16.14 z"
           id="path4293"
           inkscape:connector-curvature="0"
           style="fill:#000000;stroke-width:0" /><path
           d="m 577.84,428.21 -6.96,-0.54 v -1.55 c 3.23,0 3.68,-0.3 3.68,-2.73 v -13.41 c 0,-2.23 -0.54,-2.23 -3.89,-2.23 v -1.55 c 1.6,0.05 4.28,0.16 5.49,0.16 1.75,0 3.48,-0.11 5.18,-0.16 v 1.55 c -3.29,0 -3.5,0.25 -3.5,2.18 z"
           id="path4295"
           inkscape:connector-curvature="0"
           style="fill:#000000;stroke-width:0" /><path
           d="m 578.05,436.89 -0.01,0.14 -0.01,0.15 -0.02,0.14 -0.02,0.14 -0.03,0.13 -0.04,0.13 -0.04,0.13 -0.05,0.12 -0.05,0.12 -0.07,0.12 -0.06,0.11 -0.07,0.1 -0.08,0.1 -0.08,0.1 -0.08,0.1 -0.09,0.08 -0.1,0.09 -0.09,0.08 -0.1,0.07 -0.11,0.07 -0.1,0.07 -0.12,0.06 -0.11,0.05 -0.11,0.05 -0.12,0.04 -0.12,0.04 -0.13,0.03 -0.12,0.03 -0.13,0.02 -0.13,0.01 -0.12,0.01 -0.13,0.01 c -1.55,0 -2.64,-1.35 -2.64,-2.64 0,-1.35 1.09,-2.64 2.64,-2.64 1.39,0 2.64,1.04 2.64,2.64 z"
           id="path4297"
           inkscape:connector-curvature="0"
           style="fill:#000000;stroke-width:0" /><path
           d="m 588.31,423.34 v -13.36 c 0,-2.23 -0.54,-2.23 -3.89,-2.23 v -1.55 c 1.75,0.05 4.28,0.16 5.63,0.16 1.29,0 3.89,-0.11 5.57,-0.16 v 1.55 c -3.32,0 -3.87,0 -3.87,2.23 v 9.17 c 0,5.19 3.53,7.97 6.72,7.97 3.14,0 3.69,-2.69 3.69,-5.53 v -11.61 c 0,-2.23 -0.55,-2.23 -3.89,-2.23 v -1.55 c 1.75,0.05 4.29,0.16 5.64,0.16 1.29,0 3.87,-0.11 5.57,-0.16 v 1.55 c -2.59,0 -3.84,0 -3.89,1.5 v 9.51 c 0,4.28 0,5.83 -1.54,7.61 -0.69,0.86 -2.35,1.84 -5.22,1.84 -3.64,0 -5.99,-2.14 -7.38,-5.21 v 5.21 l -7.03,-0.54 v -1.55 c 3.49,0 3.89,-0.34 3.89,-2.78 z"
           id="path4299"
           inkscape:connector-curvature="0"
           style="fill:#000000;stroke-width:0" /><path
           d="m 616.08,417.71 0.04,1.05 c 0.3,7.42 4.49,8.66 6.19,8.66 5.13,0 5.63,-6.72 5.63,-8.66 h -11.82 l -0.04,-1.05 h 13.9 c 1.1,0 1.24,0 1.24,1.05 0,4.92 -2.69,9.75 -8.91,9.75 -5.78,0 -10.37,-5.12 -10.37,-11.36 0,-6.67 5.23,-11.5 10.97,-11.5 6.07,0 8.31,5.53 8.31,6.47 0,0.5 -0.39,0.61 -0.64,0.61 -0.46,0 -0.55,-0.3 -0.66,-0.7 -1.73,-5.13 -6.22,-5.13 -6.72,-5.13 -2.5,0 -4.48,1.49 -5.62,3.33 -1.5,2.39 -1.5,5.69 -1.5,7.48 z"
           id="path4301"
           inkscape:connector-curvature="0"
           style="fill:#000000;stroke-width:0" /><path
           d="m 654.79,409.98 0,-0.1 0,-0.1 -0.01,-0.19 -0.01,-0.18 -0.01,-0.17 -0.02,-0.15 -0.02,-0.15 -0.03,-0.13 -0.04,-0.12 -0.04,-0.11 -0.05,-0.11 -0.06,-0.09 -0.06,-0.09 -0.07,-0.08 -0.08,-0.07 -0.09,-0.06 -0.1,-0.05 -0.11,-0.05 -0.12,-0.05 -0.13,-0.03 -0.14,-0.04 -0.15,-0.02 -0.17,-0.03 -0.17,-0.01 -0.1,-0.01 -0.09,-0.01 -0.1,-0.01 -0.11,0 -0.1,-0.01 -0.11,0 -0.11,0 -0.12,-0.01 -0.12,0 -0.12,0 -0.13,0 -0.13,0 -0.14,0 -0.14,0 -0.14,0 -0.15,0 -0.15,0 -0.15,0 v -1.55 c 1.75,0.05 4.28,0.16 5.62,0.16 1.3,0 3.89,-0.11 5.58,-0.16 v 1.55 c -3.33,0 -3.87,0 -3.87,2.23 v 9.17 c 0,5.19 3.53,7.97 6.72,7.97 3.14,0 3.68,-2.69 3.68,-5.53 v -11.61 c 0,-2.23 -0.54,-2.23 -3.89,-2.23 v -1.55 c 1.75,0.05 4.3,0.16 5.64,0.16 1.3,0 3.88,-0.11 5.58,-0.16 v 1.55 c -2.59,0 -3.84,0 -3.89,1.5 v 9.51 c 0,4.28 0,5.83 -1.55,7.61 -0.68,0.86 -2.34,1.84 -5.22,1.84 -4.18,0 -6.39,-2.98 -7.23,-4.87 v 17.44 l -7.17,-0.55 v -1.55 c 3.48,0 3.89,-0.34 3.89,-2.79 z"
           id="path4303"
           inkscape:connector-curvature="0"
           style="fill:#000000;stroke-width:0" /><path
           d="m 682.55,417.71 0.05,1.05 c 0.3,7.42 4.49,8.66 6.19,8.66 5.12,0 5.62,-6.72 5.62,-8.66 H 682.6 l -0.05,-1.05 h 13.91 c 1.09,0 1.24,0 1.24,1.05 0,4.92 -2.69,9.75 -8.91,9.75 -5.78,0 -10.38,-5.12 -10.38,-11.36 0,-6.67 5.24,-11.5 10.97,-11.5 6.08,0 8.32,5.53 8.32,6.47 0,0.5 -0.4,0.61 -0.65,0.61 -0.45,0 -0.54,-0.3 -0.65,-0.7 -1.74,-5.13 -6.22,-5.13 -6.72,-5.13 -2.5,0 -4.48,1.49 -5.63,3.33 -1.5,2.39 -1.5,5.69 -1.5,7.48 z"
           id="path4305"
           inkscape:connector-curvature="0"
           style="fill:#000000;stroke-width:0" /><path
           d="m 707.91,428.21 -6.96,-0.54 v -1.55 c 3.23,0 3.68,-0.3 3.68,-2.73 v -13.41 c 0,-2.23 -0.54,-2.23 -3.89,-2.23 v -1.55 c 1.6,0.05 4.28,0.16 5.49,0.16 1.75,0 3.48,-0.11 5.18,-0.16 v 1.55 c -3.29,0 -3.5,0.25 -3.5,2.18 z"
           id="path4307"
           inkscape:connector-curvature="0"
           style="fill:#000000;stroke-width:0" /><path
           d="m 708.12,436.89 -0.01,0.14 -0.01,0.15 -0.02,0.14 -0.02,0.14 -0.03,0.13 -0.04,0.13 -0.04,0.13 -0.05,0.12 -0.05,0.12 -0.07,0.12 -0.06,0.11 -0.07,0.1 -0.08,0.1 -0.08,0.1 -0.08,0.1 -0.09,0.08 -0.09,0.09 -0.1,0.08 -0.1,0.07 -0.11,0.07 -0.1,0.07 -0.11,0.06 -0.12,0.05 -0.11,0.05 -0.12,0.04 -0.12,0.04 -0.13,0.03 -0.12,0.03 -0.13,0.02 -0.12,0.01 -0.13,0.01 -0.13,0.01 c -1.55,0 -2.64,-1.35 -2.64,-2.64 0,-1.35 1.09,-2.64 2.64,-2.64 1.39,0 2.64,1.04 2.64,2.64 z"
           id="path4309"
           inkscape:connector-curvature="0"
           style="fill:#000000;stroke-width:0" /><path
           d="m 718.18,412.82 0,0.03 0,0.02 0,0.03 0,0.04 0,0.04 0.01,0.05 0,0.05 0,0.06 0.01,0.05 0.01,0.07 0,0.06 0.01,0.07 0.02,0.07 0.01,0.08 0.02,0.08 0.02,0.08 0.02,0.08 0.02,0.08 0.03,0.09 0.03,0.09 0.03,0.09 0.03,0.09 0.04,0.09 0.05,0.1 0.04,0.09 0.05,0.1 0.06,0.09 0.05,0.1 0.07,0.09 0.06,0.1 0.08,0.09 0.07,0.1 c 1.96,-1.39 3.99,-1.55 4.94,-1.55 v 1.14 c -4.34,0 -4.34,4.99 -4.34,6.14 0,1.35 0.06,2.94 0.79,4.17 0.41,0.61 1.55,2 3.55,2 4.33,0 4.33,-4.98 4.33,-6.12 0,-1.34 -0.05,-2.94 -0.8,-4.19 -0.39,-0.59 -1.54,-2 -3.53,-2 h 0 v -1.14 c 4.63,0 8.06,3.44 8.06,7.28 0,1.85 -0.79,3.69 -2.03,4.83 1.78,1.69 3.58,1.94 4.49,1.94 0.09,0 0.34,0 0.5,-0.05 -0.57,-0.2 -0.8,-0.75 -0.8,-1.34 0,-0.85 0.64,-1.44 1.44,-1.44 0.5,0 1.43,0.34 1.43,1.48 0,0.85 -0.59,2.44 -2.53,2.44 -1,0 -3.18,-0.3 -5.28,-2.33 -2.09,1.64 -4.19,1.78 -5.28,1.78 -4.64,0 -8.08,-3.43 -8.08,-7.26 0,-2.19 1.1,-4.09 2.35,-5.14 -0.64,-0.74 -1.55,-2.39 -1.55,-4.13 0,-1.54 0.66,-3.43 2.2,-4.43 -3,-0.85 -4.59,-2.99 -4.59,-4.99 0,-3.58 4.94,-6.33 11.01,-6.33 l 0.05,1.14 c -5.03,0 -8.47,2.55 -8.47,5.19 0,2.3 1.89,4.14 4.1,4.28 h 2.93 c 4.29,0 9.86,0 9.86,-4.28 0,-2.69 -3.53,-5.19 -8.42,-5.19 h 0 l -0.05,-1.14 c 5.88,0 11.07,2.55 11.07,6.43 0,1.75 -0.71,4.29 -3.24,5.68 -2.64,1.39 -5.53,1.39 -8.58,1.39 -1.25,0 -3.39,0 -3.73,0.05 -1.59,0.2 -2.64,1.75 -2.64,3.34 z"
           id="path4311"
           inkscape:connector-curvature="0"
           style="fill:#000000;stroke-width:0" /><path
           d="m 743.34,409.98 0,-0.1 0,-0.1 -0.01,-0.19 -0.01,-0.18 -0.01,-0.17 -0.02,-0.15 -0.02,-0.15 -0.03,-0.13 -0.04,-0.12 -0.04,-0.11 -0.05,-0.11 -0.06,-0.09 -0.06,-0.09 -0.07,-0.08 -0.08,-0.07 -0.09,-0.06 -0.1,-0.05 -0.11,-0.05 -0.12,-0.05 -0.13,-0.03 -0.14,-0.04 -0.15,-0.02 -0.17,-0.03 -0.17,-0.01 -0.1,-0.01 -0.09,-0.01 -0.1,-0.01 -0.1,0 -0.11,-0.01 -0.11,0 -0.11,0 -0.12,-0.01 -0.12,0 -0.12,0 -0.13,0 -0.13,0 -0.14,0 -0.14,0 -0.14,0 -0.15,0 -0.15,0 -0.15,0 v -1.55 c 1.75,0.05 4.28,0.16 5.62,0.16 1.3,0 3.9,-0.11 5.58,-0.16 v 1.55 c -3.33,0 -3.87,0 -3.87,2.23 v 9.17 c 0,5.19 3.53,7.97 6.72,7.97 3.14,0 3.68,-2.69 3.68,-5.53 v -11.61 c 0,-2.23 -0.54,-2.23 -3.89,-2.23 v -1.55 c 1.75,0.05 4.3,0.16 5.64,0.16 1.3,0 3.88,-0.11 5.58,-0.16 v 1.55 c -2.59,0 -3.84,0 -3.89,1.5 v 9.51 c 0,4.28 0,5.83 -1.55,7.61 -0.68,0.86 -2.34,1.84 -5.22,1.84 -4.18,0 -6.38,-2.98 -7.23,-4.87 v 17.44 l -7.17,-0.55 v -1.55 c 3.48,0 3.89,-0.34 3.89,-2.79 z"
           id="path4313"
           inkscape:connector-curvature="0"
           style="fill:#000000;stroke-width:0" /><path
           d="m 772.76,426.12 h 7.13 v 1.55 h -7.13 v 9.17 h -1.25 c -0.04,-4.08 -1.54,-9.42 -6.42,-9.61 v -1.11 h 4.23 v -13.75 c 0,-6.12 4.63,-6.72 6.43,-6.72 3.53,0 4.93,3.53 4.93,6.72 v 2.84 h -1.25 v -2.73 c 0,-3.69 -1.5,-5.58 -3.34,-5.58 -3.33,0 -3.33,4.53 -3.33,5.38 z"
           id="path4315"
           inkscape:connector-curvature="0"
           style="fill:#000000;stroke-width:0" /><path
           d="m 834.37,422.5 0.14,0 0.14,0 0.15,0 0.07,0.01 0.07,0 0.07,0.01 0.07,0.01 0.07,0.01 0.07,0.01 0.07,0.01 0.07,0.02 0.06,0.02 0.07,0.02 0.06,0.02 0.06,0.03 0.05,0.03 0.05,0.04 0.05,0.03 0.05,0.05 0.04,0.04 0.04,0.05 0.02,0.03 0.02,0.03 0.02,0.02 0.01,0.03 0.02,0.03 0.01,0.04 0.01,0.03 0.01,0.04 0.01,0.03 0.01,0.04 0.01,0.04 0,0.04 0.01,0.04 0,0.04 0,0.04 0,0.05 c 0,1 -0.95,1 -1.64,1 h -29.84 c -0.7,0 -1.64,0 -1.64,-1 0,-0.98 0.94,-0.98 1.69,-0.98 z"
           id="path4317"
           inkscape:connector-curvature="0"
           style="fill:#000000;stroke-width:0" /><path
           d="m 834.41,412.82 0.07,0 0.07,0 0.13,0.01 0.14,0 0.07,0 0.07,0.01 0.07,0.01 0.07,0 0.07,0.01 0.07,0.02 0.06,0.01 0.07,0.02 0.06,0.02 0.06,0.02 0.06,0.02 0.06,0.03 0.05,0.03 0.06,0.04 0.05,0.04 0.04,0.04 0.05,0.05 0.02,0.02 0.02,0.03 0.01,0.02 0.02,0.03 0.02,0.03 0.01,0.03 0.02,0.03 0.01,0.03 0.01,0.04 0.01,0.03 0.01,0.04 0.01,0.04 0.01,0.04 0,0.04 0.01,0.04 0,0.04 0,0.05 0,0.04 c 0,1 -0.95,1 -1.68,1 h -29.75 c -0.75,0 -1.69,0 -1.69,-1 0,-1 0.94,-1 1.64,-1 z"
           id="path4319"
           inkscape:connector-curvature="0"
           style="fill:#000000;stroke-width:0" /><path
           d="m 859.02,410.04 5.28,5.13 c 7.76,6.87 10.76,9.56 10.76,14.54 0,5.69 -4.48,9.68 -10.56,9.68 -5.64,0 -9.33,-4.6 -9.33,-9.03 0,-2.79 2.5,-2.79 2.64,-2.79 0.86,0 2.6,0.6 2.6,2.64 0,1.3 -0.89,2.6 -2.64,2.6 -0.39,0 -0.5,0 -0.65,-0.05 1.15,3.24 3.83,5.08 6.72,5.08 4.54,0 6.69,-4.05 6.69,-8.13 0,-3.98 -2.5,-7.92 -5.23,-11.01 l -9.57,-10.66 c -0.56,-0.54 -0.56,-0.64 -0.56,-1.84 h 18.49 l 1.4,8.67 h -1.25 c -0.25,-1.5 -0.59,-3.69 -1.09,-4.44 -0.36,-0.39 -3.64,-0.39 -4.74,-0.39 z"
           id="path4321"
           inkscape:connector-curvature="0"
           style="fill:#000000;stroke-width:0" /></g>    </g>
    <g
       id="g4567"
       transform="matrix(0.33123711,0,0,0.33123711,130.94806,361.22191)"
       inkscape:export-filename="/home/quentin/p/overscore/doc/design/rle.png"
       inkscape:export-xdpi="200"
       inkscape:export-ydpi="200">
      <g
         word-spacing="normal"
         letter-spacing="normal"
         font-size-adjust="none"
         font-stretch="normal"
         font-weight="normal"
         font-variant="normal"
         font-style="normal"
         stroke-miterlimit="10.433"
         xml:space="preserve"
         transform="matrix(1.0629921,0,0,-1.0629921,-186.02362,789.27165)"
         id="g4569"
         style="font-style:normal;font-variant:normal;font-weight:normal;font-stretch:normal;letter-spacing:normal;word-spacing:normal;text-anchor:start;fill:none;stroke:#000000;stroke-linecap:butt;stroke-linejoin:miter;stroke-miterlimit:10.43299961;stroke-opacity:1;stroke-dasharray:none;stroke-dashoffset:0"><path
           id="path4571"
           d="m 472.91,425.53 -6.37,1.54 c -3.1,0.75 -5.04,3.44 -5.04,6.33 0,3.49 2.69,6.53 6.58,6.53 8.31,0 9.41,-8.17 9.71,-10.42 0.04,-0.3 0.04,-0.59 0.6,-0.59 0.65,0 0.65,0.25 0.65,1.2 v 10 c 0,0.86 0,1.2 -0.55,1.2 -0.35,0 -0.41,-0.04 -0.75,-0.65 L 476,437.84 c -1.5,1.44 -3.54,3.48 -7.98,3.48 -5.53,0 -9.7,-4.39 -9.7,-9.67 0,-4.12 2.64,-7.76 6.51,-9.11 0.55,-0.2 3.1,-0.79 6.58,-1.64 1.34,-0.36 2.84,-0.7 4.23,-2.54 1.05,-1.3 1.55,-2.94 1.55,-4.58 0,-3.55 -2.48,-7.13 -6.67,-7.13 -1.45,0 -5.23,0.25 -7.88,2.69 -2.89,2.69 -3.04,5.87 -3.09,7.67 -0.05,0.5 -0.44,0.5 -0.59,0.5 -0.64,0 -0.64,-0.36 -0.64,-1.25 v -9.97 c 0,-0.84 0,-1.18 0.54,-1.18 0.35,0 0.39,0.09 0.74,0.64 0,0.04 0.15,0.2 1.79,2.84 1.55,-1.69 4.74,-3.48 9.18,-3.48 5.82,0 9.81,4.87 9.81,10.35 0,4.99 -3.28,9.07 -7.47,10.07 z"
           inkscape:connector-curvature="0"
           style="fill:#000000;stroke-width:0" /><path
           id="path4573"
           d="m 491.86,426.12 h 7.13 v 1.55 h -7.13 v 9.17 h -1.25 c -0.04,-4.08 -1.54,-9.42 -6.42,-9.61 v -1.11 h 4.24 v -13.75 c 0,-6.12 4.62,-6.72 6.42,-6.72 3.53,0 4.94,3.53 4.94,6.72 v 2.84 h -1.25 v -2.73 c 0,-3.69 -1.5,-5.58 -3.35,-5.58 -3.33,0 -3.33,4.53 -3.33,5.38 z"
           inkscape:connector-curvature="0"
           style="fill:#000000;stroke-width:0" /><path
           id="path4575"
           d="m 519.15,409.98 0.02,-0.19 0.03,-0.18 0.04,-0.19 0.04,-0.18 0.05,-0.19 0.05,-0.18 0.06,-0.18 0.07,-0.18 0.08,-0.18 0.08,-0.17 0.09,-0.18 0.09,-0.16 0.1,-0.16 0.11,-0.16 0.11,-0.16 0.12,-0.14 0.13,-0.14 0.13,-0.14 0.14,-0.13 0.14,-0.12 0.15,-0.12 0.16,-0.1 0.16,-0.1 0.17,-0.09 0.18,-0.08 0.18,-0.07 0.18,-0.06 0.2,-0.05 0.2,-0.04 0.2,-0.03 0.21,-0.02 0.22,-0.01 c 1.03,0 4.08,0.71 4.08,4.74 v 2.78 h -1.25 v -2.78 c 0,-2.89 -1.24,-3.19 -1.8,-3.19 -1.64,0 -1.84,2.23 -1.84,2.48 v 9.97 c 0,2.1 0,4.03 -1.78,5.88 -1.96,1.93 -4.44,2.73 -6.83,2.73 -4.1,0 -7.53,-2.33 -7.53,-5.62 0,-1.49 1,-2.35 2.29,-2.35 1.39,0 2.3,1 2.3,2.3 0,0.59 -0.25,2.23 -2.55,2.3 1.35,1.73 3.78,2.28 5.38,2.28 2.45,0 5.28,-1.94 5.28,-6.38 v -1.84 -1.05 -4.98 c 0,-4.74 -3.58,-6.42 -5.83,-6.42 -2.44,0 -4.48,1.75 -4.48,4.23 0,2.73 2.09,6.88 10.31,7.17 h 0 v 1.05 c -2.53,-0.14 -6.02,-0.3 -9.16,-1.8 -3.73,-1.69 -4.98,-4.28 -4.98,-6.47 0,-4.03 4.83,-5.28 7.97,-5.28 3.29,0 5.58,1.99 6.53,4.33 z"
           inkscape:connector-curvature="0"
           style="fill:#000000;stroke-width:0" /><path
           id="path4577"
           d="m 549.82,426.12 h 5.74 v 1.55 h -5.88 v 5.78 c 0,4.44 2.39,6.78 4.63,6.78 0.16,0 0.91,0 1.66,-0.36 -0.62,-0.19 -1.5,-0.84 -1.5,-2.08 0,-1.15 0.79,-2.15 2.13,-2.15 1.46,0 2.19,1 2.19,2.2 0,1.8 -1.73,3.48 -4.53,3.48 -2.94,0 -5.12,-1.89 -5.37,-2.09 -1.46,1.84 -4.24,2.09 -5.58,2.09 l -0.05,-1.09 c 2.44,0 3.83,-0.95 3.88,-0.95 v -0.05 c -0.85,-0.09 -1.85,-0.75 -1.85,-2.14 0,-0.3 0.06,-1.55 1.41,-2 -0.16,-0.64 -0.16,-1.09 -0.16,-1.69 v -5.73 h -10.61 v 5.64 c 0,4.83 4.08,6.92 7.33,6.92 l 0.05,1.09 c -4.74,0 -10.52,-2.59 -10.52,-7.96 v -5.69 h -3.94 v -1.55 h 3.94 v -16.14 c 0,-2.23 -0.54,-2.23 -3.89,-2.23 v -1.55 c 1.66,0.05 4.28,0.16 5.53,0.16 1.25,0 3.69,-0.11 5.54,-0.16 v 1.55 c -3.33,0 -3.9,0 -3.9,2.23 v 16.14 h 10.47 v -16.14 c 0,-2.23 -0.54,-2.23 -3.89,-2.23 v -1.55 c 1.95,0.05 4.3,0.16 5.69,0.16 1.98,0 4.33,0 6.33,-0.16 v 1.55 h -1.05 c -3.69,0 -3.8,0.54 -3.8,2.34 z"
           inkscape:connector-curvature="0"
           style="fill:#000000;stroke-width:0" /><path
           id="path4579"
           d="m 566.91,415.87 0.11,-0.02 0.13,-0.02 0.14,-0.03 0.16,-0.04 0.17,-0.04 0.18,-0.04 0.18,-0.05 0.2,-0.06 0.21,-0.06 0.21,-0.07 0.21,-0.08 0.22,-0.08 0.22,-0.1 0.22,-0.1 0.23,-0.11 0.21,-0.12 0.22,-0.14 0.21,-0.14 0.21,-0.15 0.19,-0.16 0.19,-0.18 0.19,-0.19 0.16,-0.2 0.16,-0.21 0.14,-0.22 0.07,-0.12 0.06,-0.12 0.06,-0.13 0.06,-0.12 0.04,-0.14 0.05,-0.13 0.04,-0.14 0.04,-0.14 0.03,-0.15 0.02,-0.15 0.02,-0.16 0.02,-0.15 0.01,-0.17 0,-0.16 c 0,-2.53 -1.75,-4.53 -5.63,-4.53 -4.19,0 -5.98,2.84 -6.94,7.07 -0.13,0.64 -0.18,0.85 -0.68,0.85 -0.66,0 -0.66,-0.35 -0.66,-1.25 v -6.58 c 0,-0.84 0,-1.19 0.55,-1.19 0.25,0 0.29,0.05 1.25,1 0.09,0.1 0.09,0.19 1,1.14 2.19,-2.09 4.44,-2.14 5.48,-2.14 5.72,0 8.02,3.35 8.02,6.92 0,2.64 -1.5,4.14 -2.09,4.74 -1.65,1.59 -3.6,2 -5.69,2.39 -2.78,0.55 -6.13,1.2 -6.13,4.09 0,1.74 1.3,3.78 5.58,3.78 5.49,0 5.74,-4.48 5.83,-6.03 0.06,-0.45 0.5,-0.45 0.61,-0.45 0.64,0 0.64,0.25 0.64,1.2 v 5.03 c 0,0.85 0,1.19 -0.55,1.19 -0.25,0 -0.34,0 -1,-0.59 -0.14,-0.21 -0.64,-0.64 -0.84,-0.8 -1.89,1.39 -3.94,1.39 -4.69,1.39 -6.08,0 -7.97,-3.33 -7.97,-6.12 0,-1.74 0.8,-3.14 2.14,-4.24 1.6,-1.29 3,-1.59 6.58,-2.28 z"
           inkscape:connector-curvature="0"
           style="fill:#000000;stroke-width:0" /><path
           id="path4581"
           d="m 584.79,424.93 v 3.28 l -7.17,-0.54 v -1.55 c 3.55,0 3.89,-0.3 3.89,-2.48 v -23.32 c 0,-2.25 -0.54,-2.25 -3.89,-2.25 v -1.54 c 1.7,0.06 4.28,0.15 5.58,0.15 1.34,0 3.89,-0.09 5.64,-0.15 v 1.54 c -3.34,0 -3.89,0 -3.89,2.25 v 8.36 0.46 l 0.7,0.65 c -0.7,1.05 -0.7,1.1 -0.7,2.08 h 0 V 423 c 1.44,2.53 3.89,3.98 6.42,3.98 3.64,0 6.69,-4.39 6.69,-10.02 0,-6.03 -3.5,-10.21 -7.19,-10.21 -1.98,0 -3.87,1 -5.22,3.04 l -0.7,-0.65 c 0.25,-0.8 2.34,-3.49 6.12,-3.49 5.94,0 11.11,4.88 11.11,11.31 0,6.33 -4.83,11.25 -10.4,11.25 -3.89,0 -5.99,-2.18 -6.99,-3.28 z"
           inkscape:connector-curvature="0"
           style="fill:#000000;stroke-width:0" /><path
           id="path4583"
           d="m 620.54,409.98 0.03,-0.19 0.02,-0.18 0.04,-0.19 0.04,-0.18 0.05,-0.19 0.06,-0.18 0.06,-0.18 0.07,-0.18 0.07,-0.18 0.08,-0.17 0.09,-0.18 0.1,-0.16 0.1,-0.16 0.1,-0.16 0.12,-0.16 0.12,-0.14 0.12,-0.14 0.13,-0.14 0.14,-0.13 0.15,-0.12 0.15,-0.12 0.15,-0.1 0.17,-0.1 0.17,-0.09 0.17,-0.08 0.18,-0.07 0.19,-0.06 0.19,-0.05 0.2,-0.04 0.21,-0.03 0.21,-0.02 0.21,-0.01 c 1.04,0 4.08,0.71 4.08,4.74 v 2.78 h -1.25 v -2.78 c 0,-2.89 -1.23,-3.19 -1.79,-3.19 -1.65,0 -1.85,2.23 -1.85,2.48 v 9.97 c 0,2.1 0,4.03 -1.78,5.88 -1.95,1.93 -4.44,2.73 -6.83,2.73 -4.09,0 -7.53,-2.33 -7.53,-5.62 0,-1.49 1,-2.35 2.3,-2.35 1.39,0 2.29,1 2.29,2.3 0,0.59 -0.25,2.23 -2.54,2.3 1.34,1.73 3.78,2.28 5.37,2.28 2.45,0 5.28,-1.94 5.28,-6.38 v -1.84 -1.05 -4.98 c 0,-4.74 -3.58,-6.42 -5.83,-6.42 -2.43,0 -4.48,1.75 -4.48,4.23 0,2.73 2.1,6.88 10.31,7.17 h 0 v 1.05 c -2.53,-0.14 -6.01,-0.3 -9.15,-1.8 -3.74,-1.69 -4.99,-4.28 -4.99,-6.47 0,-4.03 4.83,-5.28 7.97,-5.28 3.3,0 5.58,1.99 6.53,4.33 z"
           inkscape:connector-curvature="0"
           style="fill:#000000;stroke-width:0" /><path
           id="path4585"
           d="m 634.73,417.06 0.01,0.38 0.01,0.36 0.01,0.36 0.02,0.35 0.03,0.34 0.03,0.34 0.03,0.32 0.05,0.32 0.04,0.31 0.05,0.3 0.06,0.29 0.06,0.29 0.13,0.55 0.15,0.51 0.17,0.49 0.18,0.46 0.2,0.43 0.21,0.4 0.22,0.38 0.23,0.35 0.24,0.32 0.25,0.3 0.26,0.28 0.26,0.26 0.27,0.23 0.28,0.21 0.28,0.19 0.28,0.16 0.28,0.15 0.28,0.13 0.29,0.12 0.28,0.09 0.28,0.08 0.27,0.06 0.27,0.05 0.27,0.03 0.26,0.02 0.25,0.01 c 0.44,0 3.58,-0.05 5.33,-1.85 -2.05,-0.15 -2.35,-1.64 -2.35,-2.29 0,-1.3 0.89,-2.3 2.3,-2.3 1.28,0 2.28,0.86 2.28,2.34 0,3.39 -3.78,5.33 -7.62,5.33 -6.22,0 -10.82,-5.37 -10.82,-11.55 0,-6.37 4.94,-11.31 10.72,-11.31 6.67,0 8.27,5.99 8.27,6.47 0,0.5 -0.5,0.5 -0.64,0.5 -0.46,0 -0.55,-0.19 -0.66,-0.5 -1.44,-4.62 -4.67,-5.22 -6.51,-5.22 -2.65,0 -7.04,2.14 -7.04,10.16 z"
           inkscape:connector-curvature="0"
           style="fill:#000000;stroke-width:0" /><path
           id="path4587"
           d="m 656.52,417.71 0.04,1.05 c 0.3,7.42 4.49,8.66 6.19,8.66 5.13,0 5.63,-6.72 5.63,-8.66 h -11.82 l -0.04,-1.05 h 13.9 c 1.1,0 1.24,0 1.24,1.05 0,4.92 -2.69,9.75 -8.91,9.75 -5.78,0 -10.37,-5.12 -10.37,-11.36 0,-6.67 5.23,-11.5 10.96,-11.5 6.08,0 8.32,5.53 8.32,6.47 0,0.5 -0.39,0.61 -0.64,0.61 -0.46,0 -0.55,-0.3 -0.66,-0.7 -1.74,-5.13 -6.22,-5.13 -6.72,-5.13 -2.5,0 -4.48,1.49 -5.62,3.33 -1.5,2.39 -1.5,5.69 -1.5,7.48 z"
           inkscape:connector-curvature="0"
           style="fill:#000000;stroke-width:0" /><path
           id="path4589"
           d="m 695.1,409.98 0,-0.1 0,-0.1 0,-0.19 -0.01,-0.18 -0.02,-0.17 -0.01,-0.15 -0.03,-0.15 -0.03,-0.13 -0.03,-0.12 -0.04,-0.11 -0.05,-0.11 -0.06,-0.09 -0.06,-0.09 -0.08,-0.08 -0.08,-0.07 -0.09,-0.06 -0.1,-0.05 -0.1,-0.05 -0.12,-0.05 -0.13,-0.03 -0.14,-0.04 -0.16,-0.02 -0.16,-0.03 -0.18,-0.01 -0.09,-0.01 -0.1,-0.01 -0.1,-0.01 -0.1,0 -0.1,-0.01 -0.11,0 -0.12,0 -0.11,-0.01 -0.12,0 -0.13,0 -0.13,0 -0.13,0 -0.13,0 -0.14,0 -0.14,0 -0.15,0 -0.15,0 -0.15,0 v -1.55 c 1.75,0.05 4.28,0.16 5.62,0.16 1.3,0 3.89,-0.11 5.58,-0.16 v 1.55 c -3.33,0 -3.88,0 -3.88,2.23 v 9.17 c 0,5.19 3.53,7.97 6.72,7.97 3.14,0 3.69,-2.69 3.69,-5.53 v -11.61 c 0,-2.23 -0.55,-2.23 -3.89,-2.23 v -1.55 c 1.75,0.05 4.29,0.16 5.64,0.16 1.3,0 3.87,-0.11 5.58,-0.16 v 1.55 c -2.6,0 -3.85,0 -3.89,1.5 v 9.51 c 0,4.28 0,5.83 -1.55,7.61 -0.69,0.86 -2.34,1.84 -5.22,1.84 -4.19,0 -6.39,-2.98 -7.23,-4.87 v 17.44 l -7.17,-0.55 v -1.55 c 3.48,0 3.88,-0.34 3.88,-2.79 z"
           inkscape:connector-curvature="0"
           style="fill:#000000;stroke-width:0" /><path
           id="path4591"
           d="m 722.87,417.71 0.05,1.05 c 0.3,7.42 4.48,8.66 6.18,8.66 5.13,0 5.63,-6.72 5.63,-8.66 h -11.81 l -0.05,-1.05 h 13.91 c 1.09,0 1.23,0 1.23,1.05 0,4.92 -2.69,9.75 -8.91,9.75 -5.78,0 -10.37,-5.12 -10.37,-11.36 0,-6.67 5.24,-11.5 10.97,-11.5 6.08,0 8.31,5.53 8.31,6.47 0,0.5 -0.39,0.61 -0.64,0.61 -0.45,0 -0.55,-0.3 -0.65,-0.7 -1.74,-5.13 -6.22,-5.13 -6.72,-5.13 -2.5,0 -4.49,1.49 -5.63,3.33 -1.5,2.39 -1.5,5.69 -1.5,7.48 z"
           inkscape:connector-curvature="0"
           style="fill:#000000;stroke-width:0" /><path
           id="path4593"
           d="m 748.23,428.21 -6.97,-0.54 v -1.55 c 3.24,0 3.69,-0.3 3.69,-2.73 v -13.41 c 0,-2.23 -0.55,-2.23 -3.89,-2.23 v -1.55 c 1.59,0.05 4.28,0.16 5.48,0.16 1.75,0 3.49,-0.11 5.19,-0.16 v 1.55 c -3.3,0 -3.5,0.25 -3.5,2.18 z"
           inkscape:connector-curvature="0"
           style="fill:#000000;stroke-width:0" /><path
           id="path4595"
           d="m 748.43,436.89 0,0.14 -0.01,0.15 -0.02,0.14 -0.02,0.14 -0.03,0.13 -0.04,0.13 -0.04,0.13 -0.05,0.12 -0.06,0.12 -0.06,0.12 -0.06,0.11 -0.07,0.1 -0.08,0.1 -0.08,0.1 -0.09,0.1 -0.08,0.08 -0.1,0.09 -0.1,0.08 -0.1,0.07 -0.1,0.07 -0.11,0.07 -0.11,0.06 -0.11,0.05 -0.12,0.05 -0.12,0.04 -0.12,0.04 -0.12,0.03 -0.12,0.03 -0.13,0.02 -0.13,0.01 -0.13,0.01 -0.13,0.01 c -1.54,0 -2.64,-1.35 -2.64,-2.64 0,-1.35 1.1,-2.64 2.64,-2.64 1.39,0 2.64,1.04 2.64,2.64 z"
           inkscape:connector-curvature="0"
           style="fill:#000000;stroke-width:0" /><path
           id="path4597"
           d="m 758.5,412.82 0,0.03 0,0.02 0,0.03 0,0.04 0,0.04 0,0.05 0,0.05 0.01,0.06 0,0.05 0.01,0.07 0.01,0.06 0.01,0.07 0.01,0.07 0.02,0.08 0.01,0.08 0.02,0.08 0.02,0.08 0.03,0.08 0.02,0.09 0.03,0.09 0.03,0.09 0.04,0.09 0.04,0.09 0.04,0.1 0.05,0.09 0.05,0.1 0.05,0.09 0.06,0.1 0.06,0.09 0.07,0.1 0.07,0.09 0.08,0.1 c 1.95,-1.39 3.98,-1.55 4.94,-1.55 v 1.14 c -4.35,0 -4.35,4.99 -4.35,6.14 0,1.35 0.07,2.94 0.8,4.17 0.41,0.61 1.55,2 3.55,2 4.32,0 4.32,-4.98 4.32,-6.12 0,-1.34 -0.04,-2.94 -0.79,-4.19 -0.39,-0.59 -1.55,-2 -3.53,-2 h 0 v -1.14 c 4.62,0 8.06,3.44 8.06,7.28 0,1.85 -0.8,3.69 -2.03,4.83 1.78,1.69 3.58,1.94 4.48,1.94 0.1,0 0.35,0 0.5,-0.05 -0.56,-0.2 -0.79,-0.75 -0.79,-1.34 0,-0.85 0.64,-1.44 1.43,-1.44 0.5,0 1.44,0.34 1.44,1.48 0,0.85 -0.59,2.44 -2.53,2.44 -1,0 -3.19,-0.3 -5.28,-2.33 -2.09,1.64 -4.19,1.78 -5.28,1.78 -4.64,0 -8.08,-3.43 -8.08,-7.26 0,-2.19 1.09,-4.09 2.34,-5.14 -0.64,-0.74 -1.54,-2.39 -1.54,-4.13 0,-1.54 0.65,-3.43 2.2,-4.43 -3,-0.85 -4.6,-2.99 -4.6,-4.99 0,-3.58 4.94,-6.33 11.02,-6.33 l 0.05,1.14 c -5.03,0 -8.47,2.55 -8.47,5.19 0,2.3 1.89,4.14 4.09,4.28 h 2.94 c 4.28,0 9.86,0 9.86,-4.28 0,-2.69 -3.53,-5.19 -8.42,-5.19 h 0 l -0.05,-1.14 c 5.88,0 11.06,2.55 11.06,6.43 0,1.75 -0.7,4.29 -3.23,5.68 -2.64,1.39 -5.53,1.39 -8.58,1.39 -1.25,0 -3.39,0 -3.73,0.05 -1.6,0.2 -2.64,1.75 -2.64,3.34 z"
           inkscape:connector-curvature="0"
           style="fill:#000000;stroke-width:0" /><path
           id="path4599"
           d="m 783.66,409.98 0,-0.1 -0.01,-0.1 0,-0.19 -0.01,-0.18 -0.01,-0.17 -0.02,-0.15 -0.03,-0.15 -0.03,-0.13 -0.03,-0.12 -0.04,-0.11 -0.05,-0.11 -0.06,-0.09 -0.06,-0.09 -0.08,-0.08 -0.08,-0.07 -0.09,-0.06 -0.1,-0.05 -0.1,-0.05 -0.12,-0.05 -0.13,-0.03 -0.14,-0.04 -0.16,-0.02 -0.16,-0.03 -0.18,-0.01 -0.09,-0.01 -0.1,-0.01 -0.1,-0.01 -0.1,0 -0.1,-0.01 -0.11,0 -0.12,0 -0.11,-0.01 -0.12,0 -0.13,0 -0.12,0 -0.14,0 -0.13,0 -0.14,0 -0.14,0 -0.15,0 -0.15,0 -0.15,0 v -1.55 c 1.75,0.05 4.28,0.16 5.62,0.16 1.3,0 3.89,-0.11 5.58,-0.16 v 1.55 c -3.33,0 -3.88,0 -3.88,2.23 v 9.17 c 0,5.19 3.53,7.97 6.72,7.97 3.14,0 3.69,-2.69 3.69,-5.53 v -11.61 c 0,-2.23 -0.55,-2.23 -3.89,-2.23 v -1.55 c 1.75,0.05 4.3,0.16 5.64,0.16 1.3,0 3.87,-0.11 5.58,-0.16 v 1.55 c -2.6,0 -3.85,0 -3.89,1.5 v 9.51 c 0,4.28 0,5.83 -1.55,7.61 -0.69,0.86 -2.34,1.84 -5.22,1.84 -4.19,0 -6.39,-2.98 -7.23,-4.87 v 17.44 l -7.17,-0.55 v -1.55 c 3.48,0 3.89,-0.34 3.89,-2.79 z"
           inkscape:connector-curvature="0"
           style="fill:#000000;stroke-width:0" /><path
           id="path4601"
           d="m 813.08,426.12 h 7.12 v 1.55 h -7.12 v 9.17 h -1.25 c -0.05,-4.08 -1.55,-9.42 -6.42,-9.61 v -1.11 h 4.23 v -13.75 c 0,-6.12 4.63,-6.72 6.42,-6.72 3.53,0 4.94,3.53 4.94,6.72 v 2.84 h -1.25 v -2.73 c 0,-3.69 -1.5,-5.58 -3.34,-5.58 -3.33,0 -3.33,4.53 -3.33,5.38 z"
           inkscape:connector-curvature="0"
           style="fill:#000000;stroke-width:0" /><path
           id="path4603"
           d="m 874.68,422.5 0.14,0 0.15,0 0.14,0 0.07,0.01 0.08,0 0.07,0.01 0.07,0.01 0.07,0.01 0.07,0.01 0.07,0.01 0.06,0.02 0.07,0.02 0.06,0.02 0.06,0.02 0.06,0.03 0.06,0.03 0.05,0.04 0.05,0.03 0.05,0.05 0.04,0.04 0.04,0.05 0.02,0.03 0.02,0.03 0.01,0.02 0.02,0.03 0.01,0.03 0.02,0.04 0.01,0.03 0.01,0.04 0.01,0.03 0.01,0.04 0,0.04 0.01,0.04 0,0.04 0.01,0.04 0,0.04 0,0.05 c 0,1 -0.95,1 -1.64,1 h -29.84 c -0.71,0 -1.64,0 -1.64,-1 0,-0.98 0.93,-0.98 1.68,-0.98 z"
           inkscape:connector-curvature="0"
           style="fill:#000000;stroke-width:0" /><path
           id="path4605"
           d="m 874.73,412.82 0.07,0 0.06,0 0.14,0.01 0.14,0 0.07,0 0.07,0.01 0.07,0.01 0.07,0 0.06,0.01 0.07,0.02 0.07,0.01 0.06,0.02 0.07,0.02 0.06,0.02 0.06,0.02 0.06,0.03 0.05,0.03 0.05,0.04 0.05,0.04 0.05,0.04 0.04,0.05 0.02,0.02 0.02,0.03 0.02,0.02 0.02,0.03 0.01,0.03 0.02,0.03 0.01,0.03 0.02,0.03 0.01,0.04 0.01,0.03 0.01,0.04 0.01,0.04 0,0.04 0.01,0.04 0,0.04 0.01,0.04 0,0.05 0,0.04 c 0,1 -0.95,1 -1.69,1 h -29.75 c -0.75,0 -1.68,0 -1.68,-1 0,-1 0.93,-1 1.64,-1 z"
           inkscape:connector-curvature="0"
           style="fill:#000000;stroke-width:0" /><path
           id="path4607"
           d="m 899.59,422.54 v 1.19 c 0,12.61 6.17,14.41 8.71,14.41 1.19,0 3.29,-0.3 4.38,-2 -0.73,0 -2.73,0 -2.73,-2.24 0,-1.54 1.2,-2.29 2.29,-2.29 0.8,0 2.28,0.45 2.28,2.39 0,3 -2.18,5.39 -6.31,5.39 -6.39,0 -13.11,-6.44 -13.11,-17.44 0,-13.31 5.78,-16.84 10.41,-16.84 5.53,0 10.26,4.68 10.26,11.25 0,6.32 -4.43,11.12 -9.97,11.12 l -0.04,-1.16 c 0.79,0 3.09,0 4.64,-3.09 0.89,-1.83 0.89,-4.37 0.89,-6.81 0,-2.39 0,-4.89 -0.84,-6.69 -1.5,-2.98 -3.79,-3.23 -4.94,-3.23 h 0 c -3.14,0 -4.63,2.98 -4.92,3.73 -0.91,2.34 -0.91,6.33 -0.91,7.23 0,3.88 1.59,8.86 6.08,8.86 l 0.04,1.16 c -3.37,0 -5.21,-2.55 -6.21,-4.94 z"
           inkscape:connector-curvature="0"
           style="fill:#000000;stroke-width:0" /></g>    </g>
  </g>
</svg>
